<svg version="1.1" viewBox="0.0 0.0 783.0 484.0" fill="none" stroke="none" stroke-linecap="square" stroke-miterlimit="10" width="783" height="484" xmlns:xlink="http://www.w3.org/1999/xlink" xmlns="http://www.w3.org/2000/svg"><path fill="#ffffff" d="M0 0L783.0 0L783.0 484.0L0 484.0L0 0Z" fill-rule="nonzero"/><path fill="#db4437" d="M391.5 24.2C419.83002 24.2 447.88794 29.72699 474.1015 40.47126L432.80075 141.23563C419.69397 135.8635 405.665 133.1 391.5 133.1Z" fill-rule="nonzero"/><path fill="#f4b400" d="M474.1015 40.47126C513.2989 56.53727 546.96027 83.68546 570.9633 118.591125L481.23166 180.29556C469.23013 162.84273 452.39944 149.26863 432.80075 141.23563Z" fill-rule="nonzero"/><path fill="#0f9d58" d="M570.9633 118.591125C571.2346 118.9856 571.5046 119.380974 571.77325 119.77724L481.63663 180.88861C481.5023 180.69049 481.3673 180.4928 481.23166 180.29556Z" fill-rule="nonzero"/><path fill="#ff6d00" d="M571.77325 119.77724C582.0875 134.99036 590.43463 151.44789 596.6155 168.75743L494.05774 205.37872C490.96732 196.72395 486.79376 188.49518 481.63663 180.88861Z" fill-rule="nonzero"/><path fill="#46bdc6" d="M596.6155 168.75743C596.9123 169.58864 597.20404 170.42165 597.4907 171.2564L494.49536 206.62819C494.35202 206.21082 494.20615 205.79433 494.05774 205.37872Z" fill-rule="nonzero"/><path fill="#ab30c4" d="M597.4907 171.2564C603.60376 189.05634 607.3839 207.57356 608.7367 226.34528L500.11835 234.17264C499.44196 224.78677 497.55188 215.52817 494.49536 206.62819Z" fill-rule="nonzero"/><path fill="#c1bc1f" d="M608.7367 226.34528C609.74634 240.35597 609.3982 254.43147 607.69714 268.37512L499.59857 255.18756C500.4491 248.21574 500.62317 241.17798 500.11835 234.17264Z" fill-rule="nonzero"/><path fill="#3949ab" d="M607.69714 268.37512C602.8031 308.49142 586.844 346.45493 561.60516 378.01865L476.55258 310.00934C489.172 294.22745 497.15155 275.2457 499.59857 255.18756Z" fill-rule="nonzero"/><path fill="#ab30c4" d="M390.82602 24.201042C391.05066 24.200348 391.27533 24.2 391.5 24.2L391.5 133.1C391.38766 133.1 391.27533 133.10017 391.163 133.10052Z" fill-rule="nonzero"/><path fill="#46bdc6" d="M389.29352 24.211178C389.80435 24.206001 390.3152 24.202623 390.82602 24.201042L391.163 133.10052C390.9076 133.10132 390.65216 133.103 390.39676 133.10559Z" fill-rule="nonzero"/><path fill="#ff6d00" d="M360.9427 26.354248C370.3362 25.023172 379.80667 24.307291 389.29352 24.211178L390.39676 133.10559C385.65332 133.15364 380.9181 133.51158 376.22134 134.17712Z" fill-rule="nonzero"/><path fill="#0f9d58" d="M265.82513 64.11613C294.08176 44.152843 326.68765 31.208235 360.9427 26.354248L376.22134 134.17712C359.0938 136.60411 342.7909 143.07642 328.66257 153.05806Z" fill-rule="nonzero"/><path fill="#f4b400" d="M174.88783 264.71576C166.66658 186.31995 201.4458 109.600105 265.82513 64.11613L328.66257 153.05806C296.4729 175.80005 279.08328 214.15997 283.1939 253.35788Z" fill-rule="nonzero"/><path fill="#db4437" d="M176.72485 278.17282C175.97276 273.70734 175.36012 269.21945 174.88783 264.71576L283.1939 253.35788C283.43005 255.60973 283.7364 257.85367 284.11243 260.08643Z" fill-rule="nonzero"/><path fill="#4285f4" d="M177.19048 280.8364C177.02975 279.94952 176.87454 279.06165 176.72485 278.17282L284.11243 260.08643C284.1873 260.53082 284.26486 260.97476 284.34525 261.4182Z" fill-rule="nonzero"/><path fill="#c2185b" d="M194.90059 335.73108C186.58961 318.29892 180.63403 299.83887 177.19048 280.8364L284.34525 261.4182C286.06702 270.91943 289.0448 280.14948 293.2003 288.86554Z" fill-rule="nonzero"/><path fill="#00695c" d="M345.83755 454.95956C279.75085 440.78937 223.9877 396.7408 194.90059 335.73108L293.2003 288.86554C307.74387 319.37042 335.62543 341.39468 368.6688 348.4798Z" fill-rule="nonzero"/><path fill="#f975a8" d="M561.60516 378.01865C510.06738 442.4719 426.52844 472.26117 345.83755 454.95956L368.6688 348.4798C409.01422 357.13058 450.7837 342.23593 476.55258 310.00934Z" fill-rule="nonzero"/><path fill="#000000" d="M26.309376 32.85625L26.309376 36.2L25.184376 36.2L25.184376 27.66875L28.340626 27.66875Q29.73125 27.66875 30.528126 28.3875Q31.325 29.090626 31.325 30.278126Q31.325 31.5125 30.54375 32.184376Q29.778126 32.85625 28.325 32.85625L26.309376 32.85625ZM26.309376 31.934376L28.340626 31.934376Q29.246876 31.934376 29.715626 31.5125Q30.2 31.090626 30.2 30.29375Q30.2 29.528126 29.715626 29.075Q29.246876 28.60625 28.403126 28.590626L26.309376 28.590626L26.309376 31.934376ZM35.090626 34.60625L36.575 29.85625L37.73125 29.85625L35.184376 37.184376Q34.590626 38.7625 33.309376 38.7625L33.090626 38.746876L32.7 38.66875L32.7 37.79375L32.98125 37.809376Q33.54375 37.809376 33.840626 37.590626Q34.153126 37.371876 34.35625 36.778126L34.590626 36.121876L32.325 29.85625L33.5125 29.85625L35.090626 34.60625ZM40.496876 28.325L40.496876 29.85625L41.66875 29.85625L41.66875 30.7L40.496876 30.7L40.496876 34.621876Q40.496876 35.0125 40.653126 35.2Q40.809376 35.3875 41.184376 35.3875Q41.371876 35.3875 41.7 35.325L41.7 36.2Q41.278126 36.325 40.871876 36.325Q40.153126 36.325 39.778126 35.8875Q39.403126 35.434376 39.403126 34.621876L39.403126 30.7L38.246876 30.7L38.246876 29.85625L39.403126 29.85625L39.403126 28.325L40.496876 28.325ZM44.10625 30.621876Q44.825 29.746876 45.98125 29.746876Q47.996876 29.746876 48.0125 32.0125L48.0125 36.2L46.91875 36.2L46.91875 31.996876Q46.91875 31.325 46.60625 30.996876Q46.309376 30.66875 45.653126 30.66875Q45.121876 30.66875 44.715626 30.95Q44.325 31.23125 44.10625 31.684376L44.10625 36.2L43.028126 36.2L43.028126 27.2L44.10625 27.2L44.10625 30.621876ZM49.73125 32.965626Q49.73125 32.04375 50.090626 31.29375Q50.465626 30.54375 51.121876 30.153126Q51.778126 29.746876 52.60625 29.746876Q53.903126 29.746876 54.7 30.6375Q55.5125 31.528126 55.5125 33.028126L55.5125 33.10625Q55.5125 34.028126 55.153126 34.7625Q54.79375 35.496876 54.1375 35.91875Q53.48125 36.325 52.621876 36.325Q51.340626 36.325 50.528126 35.434376Q49.73125 34.528126 49.73125 33.04375L49.73125 32.965626ZM50.825 33.10625Q50.825 34.153126 51.309376 34.79375Q51.809376 35.434376 52.621876 35.434376Q53.45 35.434376 53.934376 34.79375Q54.41875 34.1375 54.41875 32.965626Q54.41875 31.934376 53.91875 31.29375Q53.434376 30.6375 52.60625 30.6375Q51.809376 30.6375 51.309376 31.278126Q50.825 31.903126 50.825 33.10625ZM58.04375 29.85625L58.075 30.653126Q58.809376 29.746876 59.98125 29.746876Q61.996876 29.746876 62.0125 32.0125L62.0125 36.2L60.91875 36.2L60.91875 31.996876Q60.91875 31.325 60.60625 30.996876Q60.309376 30.66875 59.653126 30.66875Q59.121876 30.66875 58.715626 30.95Q58.325 31.23125 58.10625 31.684376L58.10625 36.2L57.028126 36.2L57.028126 29.85625L58.04375 29.85625Z" fill-rule="nonzero"/><path fill="#9e9e9e" d="M30.496876 54.2L24.903126 54.2L24.903126 53.41875L27.85625 50.1375Q28.5125 49.3875 28.7625 48.934376Q29.0125 48.465626 29.0125 47.965626Q29.0125 47.29375 28.60625 46.871876Q28.215626 46.434376 27.528126 46.434376Q26.73125 46.434376 26.278126 46.903126Q25.825 47.35625 25.825 48.184376L24.746876 48.184376Q24.746876 46.996876 25.496876 46.278126Q26.2625 45.54375 27.528126 45.54375Q28.73125 45.54375 29.41875 46.16875Q30.10625 46.79375 30.10625 47.840626Q30.10625 49.090626 28.496876 50.840626L26.215626 53.309376L30.496876 53.309376L30.496876 54.2ZM32.04375 53.6375Q32.04375 53.35625 32.2 53.16875Q32.371876 52.98125 32.7 52.98125Q33.04375 52.98125 33.215626 53.16875Q33.3875 53.35625 33.3875 53.6375Q33.3875 53.903126 33.215626 54.090626Q33.04375 54.2625 32.7 54.2625Q32.371876 54.2625 32.2 54.090626Q32.04375 53.903126 32.04375 53.6375ZM38.465626 54.2L37.3875 54.2L37.3875 46.98125L35.2 47.778126L35.2 46.79375L38.309376 45.621876L38.465626 45.621876L38.465626 54.2ZM41.809376 47.309376Q41.809376 46.54375 42.29375 46.04375Q42.79375 45.54375 43.559376 45.54375Q44.340626 45.54375 44.825 46.04375Q45.309376 46.54375 45.309376 47.340626L45.309376 47.7625Q45.309376 48.528126 44.809376 49.028126Q44.325 49.5125 43.575 49.5125Q42.809376 49.5125 42.309376 49.028126Q41.809376 48.528126 41.809376 47.715626L41.809376 47.309376ZM42.621876 47.7625Q42.621876 48.215626 42.871876 48.5125Q43.1375 48.809376 43.575 48.809376Q43.996876 48.809376 44.246876 48.528126Q44.496876 48.23125 44.496876 47.73125L44.496876 47.309376Q44.496876 46.85625 44.246876 46.559376Q43.996876 46.246876 43.559376 46.246876Q43.121876 46.246876 42.871876 46.559376Q42.621876 46.85625 42.621876 47.325L42.621876 47.7625ZM45.965626 52.10625Q45.965626 51.340626 46.45 50.85625Q46.95 50.35625 47.715626 50.35625Q48.48125 50.35625 48.965626 50.85625Q49.465626 51.340626 49.465626 52.153126L49.465626 52.559376Q49.465626 53.325 48.98125 53.825Q48.496876 54.325 47.73125 54.325Q46.965626 54.325 46.465626 53.840626Q45.965626 53.340626 45.965626 52.528126L45.965626 52.10625ZM46.778126 52.559376Q46.778126 53.028126 47.028126 53.325Q47.29375 53.621876 47.73125 53.621876Q48.153126 53.621876 48.403126 53.340626Q48.653126 53.04375 48.653126 52.54375L48.653126 52.10625Q48.653126 51.6375 48.3875 51.35625Q48.1375 51.059376 47.715626 51.059376Q47.29375 51.059376 47.028126 51.35625Q46.778126 51.6375 46.778126 52.1375L46.778126 52.559376ZM43.825 53.559376L43.2 53.16875L47.371876 46.496876L47.98125 46.8875L43.825 53.559376Z" fill-rule="nonzero"/><path stroke="#757575" stroke-width="1.0" stroke-linecap="butt" d="M24.2 40.7L167.7 40.7L375.90393 35.678623" fill-rule="nonzero"/><path fill="#9e9e9e" d="M377.90393 35.678623C377.90393 34.57405 377.0085 33.678623 375.90393 33.678623C374.79938 33.678623 373.90393 34.57405 373.90393 35.678623C373.90393 36.78319 374.79938 37.678623 375.90393 37.678623C377.0085 37.678623 377.90393 36.78319 377.90393 35.678623" fill-rule="nonzero"/><path fill="#000000" d="M26.309376 65.85625L26.309376 69.2L25.184376 69.2L25.184376 60.668747L28.340626 60.668747Q29.73125 60.668747 30.528126 61.387497Q31.325 62.090622 31.325 63.278122Q31.325 64.5125 30.54375 65.18437Q29.778126 65.85625 28.325 65.85625L26.309376 65.85625ZM26.309376 64.93437L28.340626 64.93437Q29.246876 64.93437 29.715626 64.5125Q30.2 64.09062 30.2 63.293747Q30.2 62.528122 29.715626 62.074997Q29.246876 61.606247 28.403126 61.590622L26.309376 61.590622L26.309376 64.93437ZM36.934376 68.575Q36.309376 69.325 35.075 69.325Q34.059376 69.325 33.528126 68.73125Q32.996876 68.1375 32.996876 66.98125L32.996876 62.856247L34.075 62.856247L34.075 66.95Q34.075 68.40312 35.246876 68.40312Q36.496876 68.40312 36.903126 67.46562L36.903126 62.856247L37.996876 62.856247L37.996876 69.2L36.965626 69.2L36.934376 68.575ZM39.7625 65.98125Q39.7625 64.49687 40.45 63.621872Q41.1375 62.746872 42.2625 62.746872Q43.41875 62.746872 44.075 63.559372L44.121876 62.856247L45.121876 62.856247L45.121876 69.04375Q45.121876 70.27812 44.3875 70.98125Q43.653126 71.7 42.434376 71.7Q41.746876 71.7 41.090626 71.40312Q40.434376 71.10625 40.090626 70.60625L40.653126 69.95Q41.340626 70.80937 42.35625 70.80937Q43.1375 70.80937 43.575 70.35625Q44.028126 69.91875 44.028126 69.10625L44.028126 68.55937Q43.371876 69.325 42.246876 69.325Q41.1375 69.325 40.45 68.43437Q39.7625 67.52812 39.7625 65.98125ZM40.85625 66.10625Q40.85625 67.16875 41.29375 67.79375Q41.73125 68.40312 42.528126 68.40312Q43.54375 68.40312 44.028126 67.46562L44.028126 64.575Q43.528126 63.668747 42.528126 63.668747Q41.746876 63.668747 41.29375 64.27812Q40.85625 64.8875 40.85625 66.10625Z" fill-rule="nonzero"/><path fill="#9e9e9e" d="M30.41875 79.27812L26.8875 87.2L25.746876 87.2L29.2625 79.55937L24.653126 79.55937L24.653126 78.66875L30.41875 78.66875L30.41875 79.27812ZM32.04375 86.6375Q32.04375 86.35625 32.2 86.16875Q32.371876 85.98125 32.7 85.98125Q33.04375 85.98125 33.215626 86.16875Q33.3875 86.35625 33.3875 86.6375Q33.3875 86.90312 33.215626 87.09062Q33.04375 87.2625 32.7 87.2625Q32.371876 87.2625 32.2 87.09062Q32.04375 86.90312 32.04375 86.6375ZM35.403126 82.91875L35.840626 78.66875L40.215626 78.66875L40.215626 79.66875L36.7625 79.66875L36.496876 81.99687Q37.1375 81.62187 37.934376 81.62187Q39.090626 81.62187 39.778126 82.40312Q40.465626 83.16875 40.465626 84.48125Q40.465626 85.79375 39.746876 86.55937Q39.04375 87.325 37.7625 87.325Q36.6375 87.325 35.91875 86.7Q35.2 86.05937 35.10625 84.95L36.121876 84.95Q36.23125 85.68437 36.653126 86.05937Q37.075 86.43437 37.7625 86.43437Q38.5125 86.43437 38.95 85.91875Q39.3875 85.40312 39.3875 84.49687Q39.3875 83.6375 38.91875 83.12187Q38.45 82.60625 37.66875 82.60625Q36.965626 82.60625 36.559376 82.90312L36.278126 83.1375L35.403126 82.91875ZM41.809376 80.30937Q41.809376 79.54375 42.29375 79.04375Q42.79375 78.54375 43.559376 78.54375Q44.340626 78.54375 44.825 79.04375Q45.309376 79.54375 45.309376 80.34062L45.309376 80.7625Q45.309376 81.52812 44.809376 82.02812Q44.325 82.5125 43.575 82.5125Q42.809376 82.5125 42.309376 82.02812Q41.809376 81.52812 41.809376 80.71562L41.809376 80.30937ZM42.621876 80.7625Q42.621876 81.21562 42.871876 81.5125Q43.1375 81.80937 43.575 81.80937Q43.996876 81.80937 44.246876 81.52812Q44.496876 81.23125 44.496876 80.73125L44.496876 80.30937Q44.496876 79.85625 44.246876 79.55937Q43.996876 79.24687 43.559376 79.24687Q43.121876 79.24687 42.871876 79.55937Q42.621876 79.85625 42.621876 80.325L42.621876 80.7625ZM45.965626 85.10625Q45.965626 84.34062 46.45 83.85625Q46.95 83.35625 47.715626 83.35625Q48.48125 83.35625 48.965626 83.85625Q49.465626 84.34062 49.465626 85.15312L49.465626 85.55937Q49.465626 86.325 48.98125 86.825Q48.496876 87.325 47.73125 87.325Q46.965626 87.325 46.465626 86.84062Q45.965626 86.34062 45.965626 85.52812L45.965626 85.10625ZM46.778126 85.55937Q46.778126 86.02812 47.028126 86.325Q47.29375 86.62187 47.73125 86.62187Q48.153126 86.62187 48.403126 86.34062Q48.653126 86.04375 48.653126 85.54375L48.653126 85.10625Q48.653126 84.6375 48.3875 84.35625Q48.1375 84.05937 47.715626 84.05937Q47.29375 84.05937 47.028126 84.35625Q46.778126 84.6375 46.778126 85.1375L46.778126 85.55937ZM43.825 86.55937L43.2 86.16875L47.371876 79.49687L47.98125 79.8875L43.825 86.55937Z" fill-rule="nonzero"/><path stroke="#757575" stroke-width="1.0" stroke-linecap="butt" d="M24.2 73.7L167.7 73.7L315.15277 49.690742" fill-rule="nonzero"/><path fill="#9e9e9e" d="M317.15277 49.690742C317.15277 48.586174 316.25735 47.690742 315.15277 47.690742C314.04822 47.690742 313.15277 48.586174 313.15277 49.690742C313.15277 50.79531 314.04822 51.690742 315.15277 51.690742C316.25735 51.690742 317.15277 50.79531 317.15277 49.690742" fill-rule="nonzero"/><path fill="#000000" d="M26.309376 148.72655L26.309376 152.0703L25.184376 152.0703L25.184376 143.53905L28.340626 143.53905Q29.73125 143.53905 30.528126 144.2578Q31.325 144.96092 31.325 146.14842Q31.325 147.3828 30.54375 148.05467Q29.778126 148.72655 28.325 148.72655L26.309376 148.72655ZM26.309376 147.80467L28.340626 147.80467Q29.246876 147.80467 29.715626 147.3828Q30.2 146.96092 30.2 146.16405Q30.2 145.39842 29.715626 144.9453Q29.246876 144.47655 28.403126 144.46092L26.309376 144.46092L26.309376 147.80467ZM39.746876 152.0703L38.621876 152.0703L38.621876 148.1328L34.309376 148.1328L34.309376 152.0703L33.184376 152.0703L33.184376 143.53905L34.309376 143.53905L34.309376 147.21092L38.621876 147.21092L38.621876 143.53905L39.746876 143.53905L39.746876 152.0703ZM43.309376 148.72655L43.309376 152.0703L42.184376 152.0703L42.184376 143.53905L45.340626 143.53905Q46.73125 143.53905 47.528126 144.2578Q48.325 144.96092 48.325 146.14842Q48.325 147.3828 47.54375 148.05467Q46.778126 148.72655 45.325 148.72655L43.309376 148.72655ZM43.309376 147.80467L45.340626 147.80467Q46.246876 147.80467 46.715626 147.3828Q47.2 146.96092 47.2 146.16405Q47.2 145.39842 46.715626 144.9453Q46.246876 144.47655 45.403126 144.46092L43.309376 144.46092L43.309376 147.80467Z" fill-rule="nonzero"/><path fill="#9e9e9e" d="M28.465626 170.0703L27.3875 170.0703L27.3875 162.85155L25.2 163.64842L25.2 162.66405L28.309376 161.49217L28.465626 161.49217L28.465626 170.0703ZM36.16875 161.53905L36.16875 162.4453L35.965626 162.4453Q34.7 162.47655 33.95 163.21092Q33.2 163.92967 33.075 165.24217Q33.7625 164.47655 34.91875 164.47655Q36.028126 164.47655 36.7 165.2578Q37.371876 166.03905 37.371876 167.28905Q37.371876 168.60155 36.653126 169.39842Q35.934376 170.1953 34.715626 170.1953Q33.496876 170.1953 32.73125 169.2578Q31.98125 168.30467 31.98125 166.8203L31.98125 166.41405Q31.98125 164.05467 32.98125 162.80467Q33.98125 161.55467 35.965626 161.53905L36.16875 161.53905ZM34.746876 165.3828Q34.184376 165.3828 33.715626 165.71092Q33.246876 166.03905 33.059376 166.55467L33.059376 166.9453Q33.059376 168.0078 33.528126 168.64842Q34.0125 169.28905 34.715626 169.28905Q35.45 169.28905 35.871876 168.7578Q36.29375 168.21092 36.29375 167.33592Q36.29375 166.46092 35.871876 165.92967Q35.45 165.3828 34.746876 165.3828ZM39.04375 169.5078Q39.04375 169.22655 39.2 169.03905Q39.371876 168.85155 39.7 168.85155Q40.04375 168.85155 40.215626 169.03905Q40.3875 169.22655 40.3875 169.5078Q40.3875 169.77342 40.215626 169.96092Q40.04375 170.1328 39.7 170.1328Q39.371876 170.1328 39.2 169.96092Q39.04375 169.77342 39.04375 169.5078ZM46.059376 166.3203Q45.73125 166.72655 45.246876 166.97655Q44.778126 167.21092 44.215626 167.21092Q43.48125 167.21092 42.934376 166.85155Q42.3875 166.49217 42.090626 165.83592Q41.79375 165.16405 41.79375 164.36717Q41.79375 163.52342 42.10625 162.83592Q42.434376 162.14842 43.028126 161.78905Q43.6375 161.41405 44.434376 161.41405Q45.7 161.41405 46.41875 162.36717Q47.153126 163.3203 47.153126 164.9453L47.153126 165.2578Q47.153126 167.7578 46.16875 168.89842Q45.184376 170.03905 43.2 170.0703L42.98125 170.0703L42.98125 169.16405L43.215626 169.16405Q44.559376 169.1328 45.278126 168.46092Q45.996876 167.78905 46.059376 166.3203ZM44.3875 166.3203Q44.934376 166.3203 45.3875 165.99217Q45.85625 165.64842 46.075 165.16405L46.075 164.72655Q46.075 163.66405 45.60625 162.99217Q45.1375 162.3203 44.434376 162.3203Q43.715626 162.3203 43.278126 162.86717Q42.85625 163.41405 42.85625 164.3203Q42.85625 165.1953 43.2625 165.7578Q43.684376 166.3203 44.3875 166.3203ZM48.809376 163.17967Q48.809376 162.41405 49.29375 161.91405Q49.79375 161.41405 50.559376 161.41405Q51.340626 161.41405 51.825 161.91405Q52.309376 162.41405 52.309376 163.21092L52.309376 163.6328Q52.309376 164.39842 51.809376 164.89842Q51.325 165.3828 50.575 165.3828Q49.809376 165.3828 49.309376 164.89842Q48.809376 164.39842 48.809376 163.58592L48.809376 163.17967ZM49.621876 163.6328Q49.621876 164.08592 49.871876 164.3828Q50.1375 164.67967 50.575 164.67967Q50.996876 164.67967 51.246876 164.39842Q51.496876 164.10155 51.496876 163.60155L51.496876 163.17967Q51.496876 162.72655 51.246876 162.42967Q50.996876 162.11717 50.559376 162.11717Q50.121876 162.11717 49.871876 162.42967Q49.621876 162.72655 49.621876 163.1953L49.621876 163.6328ZM52.965626 167.97655Q52.965626 167.21092 53.45 166.72655Q53.95 166.22655 54.715626 166.22655Q55.48125 166.22655 55.965626 166.72655Q56.465626 167.21092 56.465626 168.02342L56.465626 168.42967Q56.465626 169.1953 55.98125 169.6953Q55.496876 170.1953 54.73125 170.1953Q53.965626 170.1953 53.465626 169.71092Q52.965626 169.21092 52.965626 168.39842L52.965626 167.97655ZM53.778126 168.42967Q53.778126 168.89842 54.028126 169.1953Q54.29375 169.49217 54.73125 169.49217Q55.153126 169.49217 55.403126 169.21092Q55.653126 168.91405 55.653126 168.41405L55.653126 167.97655Q55.653126 167.5078 55.3875 167.22655Q55.1375 166.92967 54.715626 166.92967Q54.29375 166.92967 54.028126 167.22655Q53.778126 167.5078 53.778126 168.0078L53.778126 168.42967ZM50.825 169.42967L50.2 169.03905L54.371876 162.36717L54.98125 162.7578L50.825 169.42967Z" fill-rule="nonzero"/><path stroke="#757575" stroke-width="1.0" stroke-linecap="butt" d="M24.2 156.5703L167.7 156.5703L203.0497 156.5703" fill-rule="nonzero"/><path fill="#9e9e9e" d="M205.0497 156.5703C205.0497 155.46573 204.15427 154.5703 203.0497 154.5703C201.94513 154.5703 201.0497 155.46573 201.0497 156.5703C201.0497 157.67487 201.94513 158.5703 203.0497 158.5703C204.15427 158.5703 205.0497 157.67487 205.0497 156.5703" fill-rule="nonzero"/><path fill="#000000" d="M26.6375 241.72609L29.434376 248.67921L32.215626 241.72609L33.684376 241.72609L33.684376 250.25734L32.559376 250.25734L32.559376 246.92921L32.66875 243.35109L29.85625 250.25734L28.996876 250.25734L26.2 243.36671L26.309376 246.92921L26.309376 250.25734L25.184376 250.25734L25.184376 241.72609L26.6375 241.72609ZM38.934376 250.25734Q38.840626 250.06984 38.778126 249.58546Q38.028126 250.38234 36.98125 250.38234Q36.04375 250.38234 35.434376 249.85109Q34.840626 249.31984 34.840626 248.49171Q34.840626 247.50734 35.590626 246.96046Q36.340626 246.41359 37.715626 246.41359L38.7625 246.41359L38.7625 245.91359Q38.7625 245.35109 38.41875 245.02296Q38.090626 244.67921 37.41875 244.67921Q36.840626 244.67921 36.45 244.97609Q36.059376 245.25734 36.059376 245.67921L34.965626 245.67921Q34.965626 245.19484 35.29375 244.75734Q35.6375 244.31984 36.215626 244.06984Q36.79375 243.80421 37.48125 243.80421Q38.590626 243.80421 39.2 244.35109Q39.825 244.89796 39.85625 245.85109L39.85625 248.77296Q39.85625 249.64796 40.075 250.16359L40.075 250.25734L38.934376 250.25734ZM37.1375 249.42921Q37.653126 249.42921 38.10625 249.16359Q38.559376 248.89796 38.7625 248.47609L38.7625 247.17921L37.91875 247.17921Q35.91875 247.17921 35.91875 248.35109Q35.91875 248.85109 36.2625 249.14796Q36.60625 249.42921 37.1375 249.42921ZM43.79375 247.31984L43.10625 248.02296L43.10625 250.25734L42.028126 250.25734L42.028126 241.25734L43.10625 241.25734L43.10625 246.69484L43.684376 246.00734L45.66875 243.91359L46.98125 243.91359L44.5125 246.56984L47.278126 250.25734L45.996876 250.25734L43.79375 247.31984ZM50.653126 250.38234Q49.35625 250.38234 48.54375 249.53859Q47.746876 248.67921 47.746876 247.25734L47.746876 247.06984Q47.746876 246.11671 48.10625 245.38234Q48.465626 244.63234 49.10625 244.22609Q49.7625 243.80421 50.5125 243.80421Q51.746876 243.80421 52.434376 244.61671Q53.121876 245.42921 53.121876 246.94484L53.121876 247.39796L48.825 247.39796Q48.85625 248.33546 49.371876 248.91359Q49.903126 249.49171 50.715626 249.49171Q51.278126 249.49171 51.66875 249.25734Q52.075 249.02296 52.3875 248.63234L53.04375 249.14796Q52.246876 250.38234 50.653126 250.38234ZM50.5125 244.69484Q49.85625 244.69484 49.403126 245.17921Q48.965626 245.64796 48.871876 246.50734L52.04375 246.50734L52.04375 246.42921Q51.996876 245.60109 51.590626 245.14796Q51.2 244.69484 50.5125 244.69484ZM54.559376 250.25734L54.559376 244.75734L53.559376 244.75734L53.559376 243.91359L54.559376 243.91359L54.559376 243.27296Q54.559376 242.24171 55.090626 241.69484Q55.6375 241.13234 56.6375 241.13234Q57.0125 241.13234 57.3875 241.22609L57.325 242.11671Q57.04375 242.05421 56.746876 242.05421Q56.215626 242.05421 55.91875 242.36671Q55.6375 242.67921 55.6375 243.24171L55.6375 243.91359L56.996876 243.91359L56.996876 244.75734L55.6375 244.75734L55.6375 250.25734L54.559376 250.25734ZM59.2 250.25734L58.121876 250.25734L58.121876 243.91359L59.2 243.91359L59.2 250.25734ZM58.028126 242.24171Q58.028126 241.97609 58.184376 241.78859Q58.35625 241.60109 58.66875 241.60109Q58.98125 241.60109 59.1375 241.78859Q59.309376 241.97609 59.309376 242.24171Q59.309376 242.49171 59.1375 242.67921Q58.98125 242.85109 58.66875 242.85109Q58.35625 242.85109 58.184376 242.67921Q58.028126 242.49171 58.028126 242.24171ZM62.2 250.25734L61.121876 250.25734L61.121876 241.25734L62.2 241.25734L62.2 250.25734ZM66.65312 250.38234Q65.35625 250.38234 64.54375 249.53859Q63.746876 248.67921 63.746876 247.25734L63.746876 247.06984Q63.746876 246.11671 64.10625 245.38234Q64.46562 244.63234 65.10625 244.22609Q65.7625 243.80421 66.5125 243.80421Q67.74687 243.80421 68.43437 244.61671Q69.12187 245.42921 69.12187 246.94484L69.12187 247.39796L64.825 247.39796Q64.85625 248.33546 65.37187 248.91359Q65.90312 249.49171 66.71562 249.49171Q67.27812 249.49171 67.66875 249.25734Q68.075 249.02296 68.3875 248.63234L69.04375 249.14796Q68.24687 250.38234 66.65312 250.38234ZM66.5125 244.69484Q65.85625 244.69484 65.40312 245.17921Q64.96562 245.64796 64.87187 246.50734L68.04375 246.50734L68.04375 246.42921Q67.99687 245.60109 67.59062 245.14796Q67.2 244.69484 66.5125 244.69484Z" fill-rule="nonzero"/><path fill="#9e9e9e" d="M28.465626 268.25732L27.3875 268.25732L27.3875 261.03857L25.2 261.83545L25.2 260.85107L28.309376 259.6792L28.465626 259.6792L28.465626 268.25732ZM32.04375 267.69482Q32.04375 267.41357 32.2 267.22607Q32.371876 267.03857 32.7 267.03857Q33.04375 267.03857 33.215626 267.22607Q33.3875 267.41357 33.3875 267.69482Q33.3875 267.96045 33.215626 268.14795Q33.04375 268.31982 32.7 268.31982Q32.371876 268.31982 32.2 268.14795Q32.04375 267.96045 32.04375 267.69482ZM40.2625 264.6167Q40.2625 266.52295 39.60625 267.46045Q38.965626 268.38232 37.575 268.38232Q36.215626 268.38232 35.559376 267.47607Q34.903126 266.56982 34.871876 264.75732L34.871876 263.31982Q34.871876 261.4292 35.5125 260.52295Q36.16875 259.60107 37.559376 259.60107Q38.934376 259.60107 39.590626 260.4917Q40.246876 261.3667 40.2625 263.21045L40.2625 264.6167ZM39.16875 263.13232Q39.16875 261.75732 38.778126 261.13232Q38.403126 260.4917 37.559376 260.4917Q36.73125 260.4917 36.340626 261.13232Q35.965626 261.75732 35.965626 263.0542L35.965626 264.78857Q35.965626 266.16357 36.35625 266.83545Q36.7625 267.4917 37.575 267.4917Q38.371876 267.4917 38.7625 266.8667Q39.153126 266.2417 39.16875 264.91357L39.16875 263.13232ZM41.809376 261.3667Q41.809376 260.60107 42.29375 260.10107Q42.79375 259.60107 43.559376 259.60107Q44.340626 259.60107 44.825 260.10107Q45.309376 260.60107 45.309376 261.39795L45.309376 261.81982Q45.309376 262.58545 44.809376 263.08545Q44.325 263.56982 43.575 263.56982Q42.809376 263.56982 42.309376 263.08545Q41.809376 262.58545 41.809376 261.77295L41.809376 261.3667ZM42.621876 261.81982Q42.621876 262.27295 42.871876 262.56982Q43.1375 262.8667 43.575 262.8667Q43.996876 262.8667 44.246876 262.58545Q44.496876 262.28857 44.496876 261.78857L44.496876 261.3667Q44.496876 260.91357 44.246876 260.6167Q43.996876 260.3042 43.559376 260.3042Q43.121876 260.3042 42.871876 260.6167Q42.621876 260.91357 42.621876 261.38232L42.621876 261.81982ZM45.965626 266.16357Q45.965626 265.39795 46.45 264.91357Q46.95 264.41357 47.715626 264.41357Q48.48125 264.41357 48.965626 264.91357Q49.465626 265.39795 49.465626 266.21045L49.465626 266.6167Q49.465626 267.38232 48.98125 267.88232Q48.496876 268.38232 47.73125 268.38232Q46.965626 268.38232 46.465626 267.89795Q45.965626 267.39795 45.965626 266.58545L45.965626 266.16357ZM46.778126 266.6167Q46.778126 267.08545 47.028126 267.38232Q47.29375 267.6792 47.73125 267.6792Q48.153126 267.6792 48.403126 267.39795Q48.653126 267.10107 48.653126 266.60107L48.653126 266.16357Q48.653126 265.69482 48.3875 265.41357Q48.1375 265.1167 47.715626 265.1167Q47.29375 265.1167 47.028126 265.41357Q46.778126 265.69482 46.778126 266.19482L46.778126 266.6167ZM43.825 267.6167L43.2 267.22607L47.371876 260.5542L47.98125 260.94482L43.825 267.6167Z" fill-rule="nonzero"/><path stroke="#757575" stroke-width="1.0" stroke-linecap="butt" d="M24.2 254.75734L167.7 254.75734L186.49135 269.9857" fill-rule="nonzero"/><path fill="#9e9e9e" d="M188.49135 269.9857C188.49135 268.88113 187.59592 267.9857 186.49135 267.9857C185.38678 267.9857 184.49135 268.88113 184.49135 269.9857C184.49135 271.09027 185.38678 271.9857 186.49135 271.9857C187.59592 271.9857 188.49135 271.09027 188.49135 269.9857" fill-rule="nonzero"/><path fill="#000000" d="M26.6375 274.72607L29.434376 281.6792L32.215626 274.72607L33.684376 274.72607L33.684376 283.25732L32.559376 283.25732L32.559376 279.9292L32.66875 276.35107L29.85625 283.25732L28.996876 283.25732L26.2 276.3667L26.309376 279.9292L26.309376 283.25732L25.184376 283.25732L25.184376 274.72607L26.6375 274.72607ZM39.48125 280.39795L40.66875 280.39795L40.66875 281.27295L39.48125 281.27295L39.48125 283.25732L38.403126 283.25732L38.403126 281.27295L34.5125 281.27295L34.5125 280.63232L38.325 274.72607L39.48125 274.72607L39.48125 280.39795ZM35.746876 280.39795L38.403126 280.39795L38.403126 276.21045L38.2625 276.44482L35.746876 280.39795Z" fill-rule="nonzero"/><path fill="#9e9e9e" d="M30.2625 297.6167Q30.2625 299.52295 29.60625 300.46045Q28.965626 301.38232 27.575 301.38232Q26.215626 301.38232 25.559376 300.47607Q24.903126 299.56982 24.871876 297.75732L24.871876 296.31982Q24.871876 294.4292 25.5125 293.52295Q26.16875 292.60107 27.559376 292.60107Q28.934376 292.60107 29.590626 293.4917Q30.246876 294.3667 30.2625 296.21045L30.2625 297.6167ZM29.16875 296.13232Q29.16875 294.75732 28.778126 294.13232Q28.403126 293.4917 27.559376 293.4917Q26.73125 293.4917 26.340626 294.13232Q25.965626 294.75732 25.965626 296.0542L25.965626 297.78857Q25.965626 299.16357 26.35625 299.83545Q26.7625 300.4917 27.575 300.4917Q28.371876 300.4917 28.7625 299.8667Q29.153126 299.2417 29.16875 297.91357L29.16875 296.13232ZM32.04375 300.69482Q32.04375 300.41357 32.2 300.22607Q32.371876 300.03857 32.7 300.03857Q33.04375 300.03857 33.215626 300.22607Q33.3875 300.41357 33.3875 300.69482Q33.3875 300.96045 33.215626 301.14795Q33.04375 301.31982 32.7 301.31982Q32.371876 301.31982 32.2 301.14795Q32.04375 300.96045 32.04375 300.69482ZM40.496876 301.25732L34.903126 301.25732L34.903126 300.47607L37.85625 297.19482Q38.5125 296.44482 38.7625 295.9917Q39.0125 295.52295 39.0125 295.02295Q39.0125 294.35107 38.60625 293.9292Q38.215626 293.4917 37.528126 293.4917Q36.73125 293.4917 36.278126 293.96045Q35.825 294.41357 35.825 295.2417L34.746876 295.2417Q34.746876 294.0542 35.496876 293.33545Q36.2625 292.60107 37.528126 292.60107Q38.73125 292.60107 39.41875 293.22607Q40.10625 293.85107 40.10625 294.89795Q40.10625 296.14795 38.496876 297.89795L36.215626 300.3667L40.496876 300.3667L40.496876 301.25732ZM41.809376 294.3667Q41.809376 293.60107 42.29375 293.10107Q42.79375 292.60107 43.559376 292.60107Q44.340626 292.60107 44.825 293.10107Q45.309376 293.60107 45.309376 294.39795L45.309376 294.81982Q45.309376 295.58545 44.809376 296.08545Q44.325 296.56982 43.575 296.56982Q42.809376 296.56982 42.309376 296.08545Q41.809376 295.58545 41.809376 294.77295L41.809376 294.3667ZM42.621876 294.81982Q42.621876 295.27295 42.871876 295.56982Q43.1375 295.8667 43.575 295.8667Q43.996876 295.8667 44.246876 295.58545Q44.496876 295.28857 44.496876 294.78857L44.496876 294.3667Q44.496876 293.91357 44.246876 293.6167Q43.996876 293.3042 43.559376 293.3042Q43.121876 293.3042 42.871876 293.6167Q42.621876 293.91357 42.621876 294.38232L42.621876 294.81982ZM45.965626 299.16357Q45.965626 298.39795 46.45 297.91357Q46.95 297.41357 47.715626 297.41357Q48.48125 297.41357 48.965626 297.91357Q49.465626 298.39795 49.465626 299.21045L49.465626 299.6167Q49.465626 300.38232 48.98125 300.88232Q48.496876 301.38232 47.73125 301.38232Q46.965626 301.38232 46.465626 300.89795Q45.965626 300.39795 45.965626 299.58545L45.965626 299.16357ZM46.778126 299.6167Q46.778126 300.08545 47.028126 300.38232Q47.29375 300.6792 47.73125 300.6792Q48.153126 300.6792 48.403126 300.39795Q48.653126 300.10107 48.653126 299.60107L48.653126 299.16357Q48.653126 298.69482 48.3875 298.41357Q48.1375 298.1167 47.715626 298.1167Q47.29375 298.1167 47.028126 298.41357Q46.778126 298.69482 46.778126 299.19482L46.778126 299.6167ZM43.825 300.6167L43.2 300.22607L47.371876 293.5542L47.98125 293.94482L43.825 300.6167Z" fill-rule="nonzero"/><path stroke="#757575" stroke-width="1.0" stroke-linecap="butt" d="M24.2 287.75732L167.7 287.75732L187.68085 277.63007" fill-rule="nonzero"/><path fill="#9e9e9e" d="M189.68085 277.63007C189.68085 276.5255 188.78542 275.63007 187.68085 275.63007C186.57628 275.63007 185.68085 276.5255 185.68085 277.63007C185.68085 278.73465 186.57628 279.63007 187.68085 279.63007C188.78542 279.63007 189.68085 278.73465 189.68085 277.63007" fill-rule="nonzero"/><path fill="#000000" d="M26.325 315.33545L30.371876 315.33545L30.371876 316.25732L25.184376 316.25732L25.184376 307.72607L26.325 307.72607L26.325 315.33545ZM34.934376 315.63232Q34.309376 316.38232 33.075 316.38232Q32.059376 316.38232 31.528126 315.78857Q30.996876 315.19482 30.996876 314.03857L30.996876 309.91357L32.075 309.91357L32.075 314.00732Q32.075 315.46045 33.246876 315.46045Q34.496876 315.46045 34.903126 314.52295L34.903126 309.91357L35.996876 309.91357L35.996876 316.25732L34.965626 316.25732L34.934376 315.63232ZM41.934376 316.25732Q41.840626 316.06982 41.778126 315.58545Q41.028126 316.38232 39.98125 316.38232Q39.04375 316.38232 38.434376 315.85107Q37.840626 315.31982 37.840626 314.4917Q37.840626 313.50732 38.590626 312.96045Q39.340626 312.41357 40.715626 312.41357L41.7625 312.41357L41.7625 311.91357Q41.7625 311.35107 41.41875 311.02295Q41.090626 310.6792 40.41875 310.6792Q39.840626 310.6792 39.45 310.97607Q39.059376 311.25732 39.059376 311.6792L37.965626 311.6792Q37.965626 311.19482 38.29375 310.75732Q38.6375 310.31982 39.215626 310.06982Q39.79375 309.8042 40.48125 309.8042Q41.590626 309.8042 42.2 310.35107Q42.825 310.89795 42.85625 311.85107L42.85625 314.77295Q42.85625 315.64795 43.075 316.16357L43.075 316.25732L41.934376 316.25732ZM40.1375 315.4292Q40.653126 315.4292 41.10625 315.16357Q41.559376 314.89795 41.7625 314.47607L41.7625 313.1792L40.91875 313.1792Q38.91875 313.1792 38.91875 314.35107Q38.91875 314.85107 39.2625 315.14795Q39.60625 315.4292 40.1375 315.4292Z" fill-rule="nonzero"/><path fill="#9e9e9e" d="M29.48125 331.39795L30.66875 331.39795L30.66875 332.27295L29.48125 332.27295L29.48125 334.25732L28.403126 334.25732L28.403126 332.27295L24.5125 332.27295L24.5125 331.63232L28.325 325.72607L29.48125 325.72607L29.48125 331.39795ZM25.746876 331.39795L28.403126 331.39795L28.403126 327.21045L28.2625 327.44482L25.746876 331.39795ZM32.04375 333.69482Q32.04375 333.41357 32.2 333.22607Q32.371876 333.03857 32.7 333.03857Q33.04375 333.03857 33.215626 333.22607Q33.3875 333.41357 33.3875 333.69482Q33.3875 333.96045 33.215626 334.14795Q33.04375 334.31982 32.7 334.31982Q32.371876 334.31982 32.2 334.14795Q32.04375 333.96045 32.04375 333.69482ZM40.496876 334.25732L34.903126 334.25732L34.903126 333.47607L37.85625 330.19482Q38.5125 329.44482 38.7625 328.9917Q39.0125 328.52295 39.0125 328.02295Q39.0125 327.35107 38.60625 326.9292Q38.215626 326.4917 37.528126 326.4917Q36.73125 326.4917 36.278126 326.96045Q35.825 327.41357 35.825 328.2417L34.746876 328.2417Q34.746876 327.0542 35.496876 326.33545Q36.2625 325.60107 37.528126 325.60107Q38.73125 325.60107 39.41875 326.22607Q40.10625 326.85107 40.10625 327.89795Q40.10625 329.14795 38.496876 330.89795L36.215626 333.3667L40.496876 333.3667L40.496876 334.25732ZM41.809376 327.3667Q41.809376 326.60107 42.29375 326.10107Q42.79375 325.60107 43.559376 325.60107Q44.340626 325.60107 44.825 326.10107Q45.309376 326.60107 45.309376 327.39795L45.309376 327.81982Q45.309376 328.58545 44.809376 329.08545Q44.325 329.56982 43.575 329.56982Q42.809376 329.56982 42.309376 329.08545Q41.809376 328.58545 41.809376 327.77295L41.809376 327.3667ZM42.621876 327.81982Q42.621876 328.27295 42.871876 328.56982Q43.1375 328.8667 43.575 328.8667Q43.996876 328.8667 44.246876 328.58545Q44.496876 328.28857 44.496876 327.78857L44.496876 327.3667Q44.496876 326.91357 44.246876 326.6167Q43.996876 326.3042 43.559376 326.3042Q43.121876 326.3042 42.871876 326.6167Q42.621876 326.91357 42.621876 327.38232L42.621876 327.81982ZM45.965626 332.16357Q45.965626 331.39795 46.45 330.91357Q46.95 330.41357 47.715626 330.41357Q48.48125 330.41357 48.965626 330.91357Q49.465626 331.39795 49.465626 332.21045L49.465626 332.6167Q49.465626 333.38232 48.98125 333.88232Q48.496876 334.38232 47.73125 334.38232Q46.965626 334.38232 46.465626 333.89795Q45.965626 333.39795 45.965626 332.58545L45.965626 332.16357ZM46.778126 332.6167Q46.778126 333.08545 47.028126 333.38232Q47.29375 333.6792 47.73125 333.6792Q48.153126 333.6792 48.403126 333.39795Q48.653126 333.10107 48.653126 332.60107L48.653126 332.16357Q48.653126 331.69482 48.3875 331.41357Q48.1375 331.1167 47.715626 331.1167Q47.29375 331.1167 47.028126 331.41357Q46.778126 331.69482 46.778126 332.19482L46.778126 332.6167ZM43.825 333.6167L43.2 333.22607L47.371876 326.5542L47.98125 326.94482L43.825 333.6167Z" fill-rule="nonzero"/><path stroke="#757575" stroke-width="1.0" stroke-linecap="butt" d="M24.2 320.75732L167.7 320.75732L194.58424 305.52896" fill-rule="nonzero"/><path fill="#9e9e9e" d="M196.58424 305.52896C196.58424 304.4244 195.68881 303.52896 194.58424 303.52896C193.47968 303.52896 192.58424 304.4244 192.58424 305.52896C192.58424 306.63354 193.47968 307.52896 194.58424 307.52896C195.68881 307.52896 196.58424 306.63354 196.58424 305.52896" fill-rule="nonzero"/><path fill="#000000" d="M28.7625 391.3334L29.903126 391.3334L29.903126 397.38028Q29.903126 398.59903 29.153126 399.30215Q28.41875 399.98965 27.2 399.98965Q25.934376 399.98965 25.215626 399.3334Q24.5125 398.67715 24.5125 397.50528L25.6375 397.50528Q25.6375 398.23965 26.028126 398.66153Q26.434376 399.06778 27.2 399.06778Q27.903126 399.06778 28.325 398.63028Q28.7625 398.17715 28.7625 397.3959L28.7625 391.3334ZM35.934376 399.86465Q35.840626 399.67715 35.778126 399.19278Q35.028126 399.98965 33.98125 399.98965Q33.04375 399.98965 32.434376 399.4584Q31.840626 398.92715 31.840626 398.09903Q31.840626 397.11465 32.590626 396.56778Q33.340626 396.0209 34.715626 396.0209L35.7625 396.0209L35.7625 395.5209Q35.7625 394.9584 35.41875 394.63028Q35.090626 394.28653 34.41875 394.28653Q33.840626 394.28653 33.45 394.5834Q33.059376 394.86465 33.059376 395.28653L31.965626 395.28653Q31.965626 394.80215 32.29375 394.36465Q32.6375 393.92715 33.215626 393.67715Q33.79375 393.41153 34.48125 393.41153Q35.590626 393.41153 36.2 393.9584Q36.825 394.50528 36.85625 395.4584L36.85625 398.38028Q36.85625 399.25528 37.075 399.7709L37.075 399.86465L35.934376 399.86465ZM34.1375 399.03653Q34.653126 399.03653 35.10625 398.7709Q35.559376 398.50528 35.7625 398.0834L35.7625 396.78653L34.91875 396.78653Q32.91875 396.78653 32.91875 397.9584Q32.91875 398.4584 33.2625 398.75528Q33.60625 399.03653 34.1375 399.03653ZM41.10625 398.3959L42.684376 393.5209L43.79375 393.5209L41.5125 399.86465L40.684376 399.86465L38.3875 393.5209L39.496876 393.5209L41.10625 398.3959ZM48.934376 399.86465Q48.840626 399.67715 48.778126 399.19278Q48.028126 399.98965 46.98125 399.98965Q46.04375 399.98965 45.434376 399.4584Q44.840626 398.92715 44.840626 398.09903Q44.840626 397.11465 45.590626 396.56778Q46.340626 396.0209 47.715626 396.0209L48.7625 396.0209L48.7625 395.5209Q48.7625 394.9584 48.41875 394.63028Q48.090626 394.28653 47.41875 394.28653Q46.840626 394.28653 46.45 394.5834Q46.059376 394.86465 46.059376 395.28653L44.965626 395.28653Q44.965626 394.80215 45.29375 394.36465Q45.6375 393.92715 46.215626 393.67715Q46.79375 393.41153 47.48125 393.41153Q48.590626 393.41153 49.2 393.9584Q49.825 394.50528 49.85625 395.4584L49.85625 398.38028Q49.85625 399.25528 50.075 399.7709L50.075 399.86465L48.934376 399.86465ZM47.1375 399.03653Q47.653126 399.03653 48.10625 398.7709Q48.559376 398.50528 48.7625 398.0834L48.7625 396.78653L47.91875 396.78653Q45.91875 396.78653 45.91875 397.9584Q45.91875 398.4584 46.2625 398.75528Q46.60625 399.03653 47.1375 399.03653ZM54.7 396.06778Q53.2625 395.6459 52.590626 395.03653Q51.934376 394.42715 51.934376 393.53653Q51.934376 392.53653 52.73125 391.88028Q53.54375 391.2084 54.840626 391.2084Q55.715626 391.2084 56.403126 391.55215Q57.090626 391.8959 57.465626 392.48965Q57.85625 393.0834 57.85625 393.80215L56.715626 393.80215Q56.715626 393.0209 56.215626 392.5834Q55.73125 392.1459 54.840626 392.1459Q54.0125 392.1459 53.54375 392.5209Q53.075 392.88028 53.075 393.5209Q53.075 394.05215 53.5125 394.41153Q53.965626 394.7709 55.028126 395.06778Q56.090626 395.36465 56.684376 395.72403Q57.29375 396.0834 57.575 396.56778Q57.871876 397.05215 57.871876 397.69278Q57.871876 398.73965 57.059376 399.36465Q56.246876 399.98965 54.903126 399.98965Q54.0125 399.98965 53.246876 399.6459Q52.496876 399.30215 52.075 398.72403Q51.66875 398.13028 51.66875 397.3959L52.79375 397.3959Q52.79375 398.16153 53.371876 398.61465Q53.95 399.06778 54.903126 399.06778Q55.79375 399.06778 56.2625 398.7084Q56.73125 398.3334 56.73125 397.7084Q56.73125 397.0834 56.29375 396.73965Q55.85625 396.3959 54.7 396.06778ZM61.559376 399.09903Q62.1375 399.09903 62.575 398.75528Q63.0125 398.3959 63.059376 397.86465L64.09062 397.86465Q64.05937 398.41153 63.7 398.91153Q63.35625 399.3959 62.778126 399.69278Q62.215626 399.98965 61.559376 399.98965Q60.2625 399.98965 59.496876 399.13028Q58.746876 398.25528 58.746876 396.75528L58.746876 396.56778Q58.746876 395.6459 59.075 394.92715Q59.41875 394.2084 60.04375 393.81778Q60.684376 393.41153 61.559376 393.41153Q62.621876 393.41153 63.325 394.05215Q64.04375 394.67715 64.09062 395.7084L63.059376 395.7084Q63.0125 395.0834 62.590626 394.69278Q62.16875 394.30215 61.559376 394.30215Q60.73125 394.30215 60.278126 394.8959Q59.825 395.48965 59.825 396.61465L59.825 396.81778Q59.825 397.91153 60.278126 398.50528Q60.73125 399.09903 61.559376 399.09903ZM68.09062 394.48965Q67.84062 394.4584 67.55937 394.4584Q66.48125 394.4584 66.10625 395.36465L66.10625 399.86465L65.02812 399.86465L65.02812 393.5209L66.075 393.5209L66.09062 394.25528Q66.62187 393.41153 67.60625 393.41153Q67.91875 393.41153 68.09062 393.48965L68.09062 394.48965ZM70.2 399.86465L69.12187 399.86465L69.12187 393.5209L70.2 393.5209L70.2 399.86465ZM69.02812 391.84903Q69.02812 391.5834 69.18437 391.3959Q69.35625 391.2084 69.66875 391.2084Q69.98125 391.2084 70.1375 391.3959Q70.30937 391.5834 70.30937 391.84903Q70.30937 392.09903 70.1375 392.28653Q69.98125 392.4584 69.66875 392.4584Q69.35625 392.4584 69.18437 392.28653Q69.02812 392.09903 69.02812 391.84903ZM77.37187 396.7709Q77.37187 398.2084 76.71562 399.09903Q76.05937 399.98965 74.91875 399.98965Q73.7625 399.98965 73.10625 399.25528L73.10625 402.30215L72.02812 402.30215L72.02812 393.5209L73.0125 393.5209L73.05937 394.22403Q73.73125 393.41153 74.90312 393.41153Q76.04375 393.41153 76.7 394.2709Q77.37187 395.13028 77.37187 396.66153L77.37187 396.7709ZM76.29375 396.6459Q76.29375 395.56778 75.825 394.9584Q75.37187 394.3334 74.575 394.3334Q73.59062 394.3334 73.10625 395.19278L73.10625 398.22403Q73.59062 399.09903 74.59062 399.09903Q75.37187 399.09903 75.825 398.48965Q76.29375 397.86465 76.29375 396.6459ZM80.49687 391.98965L80.49687 393.5209L81.66875 393.5209L81.66875 394.36465L80.49687 394.36465L80.49687 398.28653Q80.49687 398.67715 80.65312 398.86465Q80.80937 399.05215 81.18437 399.05215Q81.37187 399.05215 81.7 398.98965L81.7 399.86465Q81.27812 399.98965 80.87187 399.98965Q80.15312 399.98965 79.77812 399.55215Q79.40312 399.09903 79.40312 398.28653L79.40312 394.36465L78.24687 394.36465L78.24687 393.5209L79.40312 393.5209L79.40312 391.98965L80.49687 391.98965Z" fill-rule="nonzero"/><path fill="#9e9e9e" d="M28.465626 417.86465L27.3875 417.86465L27.3875 410.6459L25.2 411.44278L25.2 410.4584L28.309376 409.28653L28.465626 409.28653L28.465626 417.86465ZM36.48125 415.00528L37.66875 415.00528L37.66875 415.88028L36.48125 415.88028L36.48125 417.86465L35.403126 417.86465L35.403126 415.88028L31.5125 415.88028L31.5125 415.23965L35.325 409.3334L36.48125 409.3334L36.48125 415.00528ZM32.746876 415.00528L35.403126 415.00528L35.403126 410.81778L35.2625 411.05215L32.746876 415.00528ZM39.04375 417.30215Q39.04375 417.0209 39.2 416.8334Q39.371876 416.6459 39.7 416.6459Q40.04375 416.6459 40.215626 416.8334Q40.3875 417.0209 40.3875 417.30215Q40.3875 417.56778 40.215626 417.75528Q40.04375 417.92715 39.7 417.92715Q39.371876 417.92715 39.2 417.75528Q39.04375 417.56778 39.04375 417.30215ZM46.16875 409.3334L46.16875 410.23965L45.965626 410.23965Q44.7 410.2709 43.95 411.00528Q43.2 411.72403 43.075 413.03653Q43.7625 412.2709 44.91875 412.2709Q46.028126 412.2709 46.7 413.05215Q47.371876 413.8334 47.371876 415.0834Q47.371876 416.3959 46.653126 417.19278Q45.934376 417.98965 44.715626 417.98965Q43.496876 417.98965 42.73125 417.05215Q41.98125 416.09903 41.98125 414.61465L41.98125 414.2084Q41.98125 411.84903 42.98125 410.59903Q43.98125 409.34903 45.965626 409.3334L46.16875 409.3334ZM44.746876 413.17715Q44.184376 413.17715 43.715626 413.50528Q43.246876 413.8334 43.059376 414.34903L43.059376 414.73965Q43.059376 415.80215 43.528126 416.44278Q44.0125 417.0834 44.715626 417.0834Q45.45 417.0834 45.871876 416.55215Q46.29375 416.00528 46.29375 415.13028Q46.29375 414.25528 45.871876 413.72403Q45.45 413.17715 44.746876 413.17715ZM48.809376 410.97403Q48.809376 410.2084 49.29375 409.7084Q49.79375 409.2084 50.559376 409.2084Q51.340626 409.2084 51.825 409.7084Q52.309376 410.2084 52.309376 411.00528L52.309376 411.42715Q52.309376 412.19278 51.809376 412.69278Q51.325 413.17715 50.575 413.17715Q49.809376 413.17715 49.309376 412.69278Q48.809376 412.19278 48.809376 411.38028L48.809376 410.97403ZM49.621876 411.42715Q49.621876 411.88028 49.871876 412.17715Q50.1375 412.47403 50.575 412.47403Q50.996876 412.47403 51.246876 412.19278Q51.496876 411.8959 51.496876 411.3959L51.496876 410.97403Q51.496876 410.5209 51.246876 410.22403Q50.996876 409.91153 50.559376 409.91153Q50.121876 409.91153 49.871876 410.22403Q49.621876 410.5209 49.621876 410.98965L49.621876 411.42715ZM52.965626 415.7709Q52.965626 415.00528 53.45 414.5209Q53.95 414.0209 54.715626 414.0209Q55.48125 414.0209 55.965626 414.5209Q56.465626 415.00528 56.465626 415.81778L56.465626 416.22403Q56.465626 416.98965 55.98125 417.48965Q55.496876 417.98965 54.73125 417.98965Q53.965626 417.98965 53.465626 417.50528Q52.965626 417.00528 52.965626 416.19278L52.965626 415.7709ZM53.778126 416.22403Q53.778126 416.69278 54.028126 416.98965Q54.29375 417.28653 54.73125 417.28653Q55.153126 417.28653 55.403126 417.00528Q55.653126 416.7084 55.653126 416.2084L55.653126 415.7709Q55.653126 415.30215 55.3875 415.0209Q55.1375 414.72403 54.715626 414.72403Q54.29375 414.72403 54.028126 415.0209Q53.778126 415.30215 53.778126 415.80215L53.778126 416.22403ZM50.825 417.22403L50.2 416.8334L54.371876 410.16153L54.98125 410.55215L50.825 417.22403Z" fill-rule="nonzero"/><path stroke="#757575" stroke-width="1.0" stroke-linecap="butt" d="M24.2 404.36465L167.7 404.36465L263.2445 404.36465" fill-rule="nonzero"/><path fill="#9e9e9e" d="M265.2445 404.36465C265.2445 403.26007 264.3491 402.36465 263.2445 402.36465C262.13995 402.36465 261.2445 403.26007 261.2445 404.36465C261.2445 405.4692 262.13995 406.36465 263.2445 406.36465C264.3491 406.36465 265.2445 405.4692 265.2445 404.36465" fill-rule="nonzero"/><path fill="#000000" d="M758.0656 33.496876Q757.90936 34.840626 757.0656 35.590626Q756.22186 36.325 754.83124 36.325Q753.3156 36.325 752.40936 35.246876Q751.5031 34.153126 751.5031 32.325L751.5031 31.5125Q751.5031 30.325 751.925 29.41875Q752.34686 28.5125 753.1281 28.028126Q753.90936 27.54375 754.925 27.54375Q756.28436 27.54375 757.09686 28.309376Q757.925 29.075 758.0656 30.403126L756.9406 30.403126Q756.78436 29.3875 756.3 28.934376Q755.8156 28.48125 754.925 28.48125Q753.84686 28.48125 753.2375 29.278126Q752.6281 30.075 752.6281 31.54375L752.6281 32.371876Q752.6281 33.7625 753.20624 34.590626Q753.78436 35.403126 754.83124 35.403126Q755.76874 35.403126 756.26874 34.98125Q756.76874 34.54375 756.9406 33.496876L758.0656 33.496876Z" fill-rule="nonzero"/><path fill="#9e9e9e" d="M737.76874 45.66875L737.76874 46.575L737.5656 46.575Q736.3 46.60625 735.55 47.340626Q734.8 48.059376 734.675 49.371876Q735.3625 48.60625 736.51874 48.60625Q737.6281 48.60625 738.3 49.3875Q738.97186 50.16875 738.97186 51.41875Q738.97186 52.73125 738.2531 53.528126Q737.53436 54.325 736.3156 54.325Q735.09686 54.325 734.33124 53.3875Q733.58124 52.434376 733.58124 50.95L733.58124 50.54375Q733.58124 48.184376 734.58124 46.934376Q735.58124 45.684376 737.5656 45.66875L737.76874 45.66875ZM736.34686 49.5125Q735.78436 49.5125 735.3156 49.840626Q734.84686 50.16875 734.65936 50.684376L734.65936 51.075Q734.65936 52.1375 735.1281 52.778126Q735.6125 53.41875 736.3156 53.41875Q737.05 53.41875 737.47186 52.8875Q737.89374 52.340626 737.89374 51.465626Q737.89374 50.590626 737.47186 50.059376Q737.05 49.5125 736.34686 49.5125ZM740.64374 53.6375Q740.64374 53.35625 740.8 53.16875Q740.97186 52.98125 741.3 52.98125Q741.64374 52.98125 741.8156 53.16875Q741.9875 53.35625 741.9875 53.6375Q741.9875 53.903126 741.8156 54.090626Q741.64374 54.2625 741.3 54.2625Q740.97186 54.2625 740.8 54.090626Q740.64374 53.903126 740.64374 53.6375ZM749.09686 54.2L743.5031 54.2L743.5031 53.41875L746.45624 50.1375Q747.1125 49.3875 747.3625 48.934376Q747.6125 48.465626 747.6125 47.965626Q747.6125 47.29375 747.20624 46.871876Q746.8156 46.434376 746.1281 46.434376Q745.33124 46.434376 744.8781 46.903126Q744.425 47.35625 744.425 48.184376L743.34686 48.184376Q743.34686 46.996876 744.09686 46.278126Q744.8625 45.54375 746.1281 45.54375Q747.33124 45.54375 748.01874 46.16875Q748.70624 46.79375 748.70624 47.840626Q748.70624 49.090626 747.09686 50.840626L744.8156 53.309376L749.09686 53.309376L749.09686 54.2ZM750.40936 47.309376Q750.40936 46.54375 750.89374 46.04375Q751.39374 45.54375 752.15936 45.54375Q752.9406 45.54375 753.425 46.04375Q753.90936 46.54375 753.90936 47.340626L753.90936 47.7625Q753.90936 48.528126 753.40936 49.028126Q752.925 49.5125 752.175 49.5125Q751.40936 49.5125 750.90936 49.028126Q750.40936 48.528126 750.40936 47.715626L750.40936 47.309376ZM751.22186 47.7625Q751.22186 48.215626 751.47186 48.5125Q751.7375 48.809376 752.175 48.809376Q752.59686 48.809376 752.84686 48.528126Q753.09686 48.23125 753.09686 47.73125L753.09686 47.309376Q753.09686 46.85625 752.84686 46.559376Q752.59686 46.246876 752.15936 46.246876Q751.72186 46.246876 751.47186 46.559376Q751.22186 46.85625 751.22186 47.325L751.22186 47.7625ZM754.5656 52.10625Q754.5656 51.340626 755.05 50.85625Q755.55 50.35625 756.3156 50.35625Q757.08124 50.35625 757.5656 50.85625Q758.0656 51.340626 758.0656 52.153126L758.0656 52.559376Q758.0656 53.325 757.58124 53.825Q757.09686 54.325 756.33124 54.325Q755.5656 54.325 755.0656 53.840626Q754.5656 53.340626 754.5656 52.528126L754.5656 52.10625ZM755.3781 52.559376Q755.3781 53.028126 755.6281 53.325Q755.89374 53.621876 756.33124 53.621876Q756.7531 53.621876 757.0031 53.340626Q757.2531 53.04375 757.2531 52.54375L757.2531 52.10625Q757.2531 51.6375 756.9875 51.35625Q756.7375 51.059376 756.3156 51.059376Q755.89374 51.059376 755.6281 51.35625Q755.3781 51.6375 755.3781 52.1375L755.3781 52.559376ZM752.425 53.559376L751.8 53.16875L755.97186 46.496876L756.58124 46.8875L752.425 53.559376Z" fill-rule="nonzero"/><path stroke="#757575" stroke-width="1.0" stroke-linecap="butt" d="M758.8 40.7L615.3 40.7L431.4897 38.991203" fill-rule="nonzero"/><path fill="#9e9e9e" d="M433.4897 38.991203C433.4897 37.88663 432.59427 36.991203 431.4897 36.991203C430.38513 36.991203 429.4897 37.88663 429.4897 38.991203C429.4897 40.09577 430.38513 40.991203 431.4897 40.991203C432.59427 40.991203 433.4897 40.09577 433.4897 38.991203" fill-rule="nonzero"/><path fill="#000000" d="M744.0656 67.575676Q743.90936 68.919426 743.0656 69.669426Q742.22186 70.4038 740.83124 70.4038Q739.3156 70.4038 738.40936 69.325676Q737.5031 68.231926 737.5031 66.4038L737.5031 65.5913Q737.5031 64.4038 737.925 63.49755Q738.34686 62.5913 739.1281 62.106926Q739.90936 61.62255 740.925 61.62255Q742.28436 61.62255 743.09686 62.388176Q743.925 63.1538 744.0656 64.481926L742.9406 64.481926Q742.78436 63.4663 742.3 63.013176Q741.8156 62.56005 740.925 62.56005Q739.84686 62.56005 739.2375 63.356926Q738.6281 64.1538 738.6281 65.62255L738.6281 66.450676Q738.6281 67.8413 739.20624 68.669426Q739.78436 69.481926 740.83124 69.481926Q741.76874 69.481926 742.26874 69.06005Q742.76874 68.62255 742.9406 67.575676L744.0656 67.575676ZM748.72186 65.700676L751.1125 65.700676L751.1125 66.731926L748.72186 66.731926L748.72186 69.419426L747.64374 69.419426L747.64374 66.731926L745.2531 66.731926L745.2531 65.700676L747.64374 65.700676L747.64374 63.2163L748.72186 63.2163L748.72186 65.700676ZM755.72186 65.700676L758.1125 65.700676L758.1125 66.731926L755.72186 66.731926L755.72186 69.419426L754.64374 69.419426L754.64374 66.731926L752.2531 66.731926L752.2531 65.700676L754.64374 65.700676L754.64374 63.2163L755.72186 63.2163L755.72186 65.700676Z" fill-rule="nonzero"/><path fill="#9e9e9e" d="M737.65936 84.5288Q737.33124 84.93505 736.84686 85.18505Q736.3781 85.419426 735.8156 85.419426Q735.08124 85.419426 734.53436 85.06005Q733.9875 84.700676 733.6906 84.044426Q733.39374 83.37255 733.39374 82.575676Q733.39374 81.731926 733.70624 81.044426Q734.03436 80.356926 734.6281 79.99755Q735.2375 79.62255 736.03436 79.62255Q737.3 79.62255 738.01874 80.575676Q738.7531 81.5288 738.7531 83.1538L738.7531 83.4663Q738.7531 85.9663 737.76874 87.106926Q736.78436 88.24755 734.8 88.2788L734.58124 88.2788L734.58124 87.37255L734.8156 87.37255Q736.15936 87.3413 736.8781 86.669426Q737.59686 85.99755 737.65936 84.5288ZM735.9875 84.5288Q736.53436 84.5288 736.9875 84.200676Q737.45624 83.856926 737.675 83.37255L737.675 82.93505Q737.675 81.87255 737.20624 81.200676Q736.7375 80.5288 736.03436 80.5288Q735.3156 80.5288 734.8781 81.075676Q734.45624 81.62255 734.45624 82.5288Q734.45624 83.4038 734.8625 83.9663Q735.28436 84.5288 735.9875 84.5288ZM740.64374 87.7163Q740.64374 87.43505 740.8 87.24755Q740.97186 87.06005 741.3 87.06005Q741.64374 87.06005 741.8156 87.24755Q741.9875 87.43505 741.9875 87.7163Q741.9875 87.981926 741.8156 88.169426Q741.64374 88.3413 741.3 88.3413Q740.97186 88.3413 740.8 88.169426Q740.64374 87.981926 740.64374 87.7163ZM749.09686 88.2788L743.5031 88.2788L743.5031 87.49755L746.45624 84.2163Q747.1125 83.4663 747.3625 83.013176Q747.6125 82.544426 747.6125 82.044426Q747.6125 81.37255 747.20624 80.950676Q746.8156 80.513176 746.1281 80.513176Q745.33124 80.513176 744.8781 80.981926Q744.425 81.43505 744.425 82.263176L743.34686 82.263176Q743.34686 81.075676 744.09686 80.356926Q744.8625 79.62255 746.1281 79.62255Q747.33124 79.62255 748.01874 80.24755Q748.70624 80.87255 748.70624 81.919426Q748.70624 83.169426 747.09686 84.919426L744.8156 87.388176L749.09686 87.388176L749.09686 88.2788ZM750.40936 81.388176Q750.40936 80.62255 750.89374 80.12255Q751.39374 79.62255 752.15936 79.62255Q752.9406 79.62255 753.425 80.12255Q753.90936 80.62255 753.90936 81.419426L753.90936 81.8413Q753.90936 82.606926 753.40936 83.106926Q752.925 83.5913 752.175 83.5913Q751.40936 83.5913 750.90936 83.106926Q750.40936 82.606926 750.40936 81.794426L750.40936 81.388176ZM751.22186 81.8413Q751.22186 82.294426 751.47186 82.5913Q751.7375 82.888176 752.175 82.888176Q752.59686 82.888176 752.84686 82.606926Q753.09686 82.31005 753.09686 81.81005L753.09686 81.388176Q753.09686 80.93505 752.84686 80.638176Q752.59686 80.325676 752.15936 80.325676Q751.72186 80.325676 751.47186 80.638176Q751.22186 80.93505 751.22186 81.4038L751.22186 81.8413ZM754.5656 86.18505Q754.5656 85.419426 755.05 84.93505Q755.55 84.43505 756.3156 84.43505Q757.08124 84.43505 757.5656 84.93505Q758.0656 85.419426 758.0656 86.231926L758.0656 86.638176Q758.0656 87.4038 757.58124 87.9038Q757.09686 88.4038 756.33124 88.4038Q755.5656 88.4038 755.0656 87.919426Q754.5656 87.419426 754.5656 86.606926L754.5656 86.18505ZM755.3781 86.638176Q755.3781 87.106926 755.6281 87.4038Q755.89374 87.700676 756.33124 87.700676Q756.7531 87.700676 757.0031 87.419426Q757.2531 87.12255 757.2531 86.62255L757.2531 86.18505Q757.2531 85.7163 756.9875 85.43505Q756.7375 85.138176 756.3156 85.138176Q755.89374 85.138176 755.6281 85.43505Q755.3781 85.7163 755.3781 86.2163L755.3781 86.638176ZM752.425 87.638176L751.8 87.24755L755.97186 80.575676L756.58124 80.9663L752.425 87.638176Z" fill-rule="nonzero"/><path stroke="#757575" stroke-width="1.0" stroke-linecap="butt" d="M758.8 74.7788L615.3 74.7788L521.3938 80.94301" fill-rule="nonzero"/><path fill="#9e9e9e" d="M523.3938 80.94301C523.3938 79.83844 522.49835 78.94301 521.3938 78.94301C520.2892 78.94301 519.3938 79.83844 519.3938 80.94301C519.3938 82.04758 520.2892 82.94301 521.3938 82.94301C522.49835 82.94301 523.3938 82.04758 523.3938 80.94301" fill-rule="nonzero"/><path fill="#000000" d="M729.0656 100.575676Q728.90936 101.919426 728.0656 102.669426Q727.22186 103.4038 725.83124 103.4038Q724.3156 103.4038 723.40936 102.325676Q722.5031 101.231926 722.5031 99.4038L722.5031 98.5913Q722.5031 97.4038 722.925 96.49755Q723.34686 95.5913 724.1281 95.106926Q724.90936 94.62255 725.925 94.62255Q727.28436 94.62255 728.09686 95.388176Q728.925 96.1538 729.0656 97.481926L727.9406 97.481926Q727.78436 96.4663 727.3 96.013176Q726.8156 95.56005 725.925 95.56005Q724.84686 95.56005 724.2375 96.356926Q723.6281 97.1538 723.6281 98.62255L723.6281 99.450676Q723.6281 100.8413 724.20624 101.669426Q724.78436 102.481926 725.83124 102.481926Q726.76874 102.481926 727.26874 102.06005Q727.76874 101.62255 727.9406 100.575676L729.0656 100.575676ZM732.2375 94.74755L735.03436 101.700676L737.8156 94.74755L739.28436 94.74755L739.28436 103.2788L738.15936 103.2788L738.15936 99.950676L738.26874 96.37255L735.45624 103.2788L734.59686 103.2788L731.8 96.388176L731.90936 99.950676L731.90936 103.2788L730.78436 103.2788L730.78436 94.74755L732.2375 94.74755ZM744.53436 103.2788Q744.4406 103.0913 744.3781 102.606926Q743.6281 103.4038 742.58124 103.4038Q741.64374 103.4038 741.03436 102.87255Q740.4406 102.3413 740.4406 101.513176Q740.4406 100.5288 741.1906 99.981926Q741.9406 99.43505 743.3156 99.43505L744.3625 99.43505L744.3625 98.93505Q744.3625 98.37255 744.01874 98.044426Q743.6906 97.700676 743.01874 97.700676Q742.4406 97.700676 742.05 97.99755Q741.65936 98.2788 741.65936 98.700676L740.5656 98.700676Q740.5656 98.2163 740.89374 97.7788Q741.2375 97.3413 741.8156 97.0913Q742.39374 96.825676 743.08124 96.825676Q744.1906 96.825676 744.8 97.37255Q745.425 97.919426 745.45624 98.87255L745.45624 101.794426Q745.45624 102.669426 745.675 103.18505L745.675 103.2788L744.53436 103.2788ZM742.7375 102.450676Q743.2531 102.450676 743.70624 102.18505Q744.15936 101.919426 744.3625 101.49755L744.3625 100.200676L743.51874 100.200676Q741.51874 100.200676 741.51874 101.37255Q741.51874 101.87255 741.8625 102.169426Q742.20624 102.450676 742.7375 102.450676ZM749.39374 100.3413L748.70624 101.044426L748.70624 103.2788L747.6281 103.2788L747.6281 94.2788L748.70624 94.2788L748.70624 99.7163L749.28436 99.0288L751.26874 96.93505L752.58124 96.93505L750.1125 99.5913L752.8781 103.2788L751.59686 103.2788L749.39374 100.3413ZM756.2531 103.4038Q754.95624 103.4038 754.14374 102.56005Q753.34686 101.700676 753.34686 100.2788L753.34686 100.0913Q753.34686 99.138176 753.70624 98.4038Q754.0656 97.6538 754.70624 97.24755Q755.3625 96.825676 756.1125 96.825676Q757.34686 96.825676 758.03436 97.638176Q758.72186 98.450676 758.72186 99.9663L758.72186 100.419426L754.425 100.419426Q754.45624 101.356926 754.97186 101.93505Q755.5031 102.513176 756.3156 102.513176Q756.8781 102.513176 757.26874 102.2788Q757.675 102.044426 757.9875 101.6538L758.64374 102.169426Q757.84686 103.4038 756.2531 103.4038ZM756.1125 97.7163Q755.45624 97.7163 755.0031 98.200676Q754.5656 98.669426 754.47186 99.5288L757.64374 99.5288L757.64374 99.450676Q757.59686 98.62255 757.1906 98.169426Q756.8 97.7163 756.1125 97.7163Z" fill-rule="nonzero"/><path fill="#9e9e9e" d="M738.8625 117.638176Q738.8625 119.544426 738.20624 120.481926Q737.5656 121.4038 736.175 121.4038Q734.8156 121.4038 734.15936 120.49755Q733.5031 119.5913 733.47186 117.7788L733.47186 116.3413Q733.47186 114.450676 734.1125 113.544426Q734.76874 112.62255 736.15936 112.62255Q737.53436 112.62255 738.1906 113.513176Q738.84686 114.388176 738.8625 116.231926L738.8625 117.638176ZM737.76874 116.1538Q737.76874 114.7788 737.3781 114.1538Q737.0031 113.513176 736.15936 113.513176Q735.33124 113.513176 734.9406 114.1538Q734.5656 114.7788 734.5656 116.075676L734.5656 117.81005Q734.5656 119.18505 734.95624 119.856926Q735.3625 120.513176 736.175 120.513176Q736.97186 120.513176 737.3625 119.888176Q737.7531 119.263176 737.76874 117.93505L737.76874 116.1538ZM740.64374 120.7163Q740.64374 120.43505 740.8 120.24755Q740.97186 120.06005 741.3 120.06005Q741.64374 120.06005 741.8156 120.24755Q741.9875 120.43505 741.9875 120.7163Q741.9875 120.981926 741.8156 121.169426Q741.64374 121.3413 741.3 121.3413Q740.97186 121.3413 740.8 121.169426Q740.64374 120.981926 740.64374 120.7163ZM747.0656 121.2788L745.9875 121.2788L745.9875 114.06005L743.8 114.856926L743.8 113.87255L746.90936 112.700676L747.0656 112.700676L747.0656 121.2788ZM750.40936 114.388176Q750.40936 113.62255 750.89374 113.12255Q751.39374 112.62255 752.15936 112.62255Q752.9406 112.62255 753.425 113.12255Q753.90936 113.62255 753.90936 114.419426L753.90936 114.8413Q753.90936 115.606926 753.40936 116.106926Q752.925 116.5913 752.175 116.5913Q751.40936 116.5913 750.90936 116.106926Q750.40936 115.606926 750.40936 114.794426L750.40936 114.388176ZM751.22186 114.8413Q751.22186 115.294426 751.47186 115.5913Q751.7375 115.888176 752.175 115.888176Q752.59686 115.888176 752.84686 115.606926Q753.09686 115.31005 753.09686 114.81005L753.09686 114.388176Q753.09686 113.93505 752.84686 113.638176Q752.59686 113.325676 752.15936 113.325676Q751.72186 113.325676 751.47186 113.638176Q751.22186 113.93505 751.22186 114.4038L751.22186 114.8413ZM754.5656 119.18505Q754.5656 118.419426 755.05 117.93505Q755.55 117.43505 756.3156 117.43505Q757.08124 117.43505 757.5656 117.93505Q758.0656 118.419426 758.0656 119.231926L758.0656 119.638176Q758.0656 120.4038 757.58124 120.9038Q757.09686 121.4038 756.33124 121.4038Q755.5656 121.4038 755.0656 120.919426Q754.5656 120.419426 754.5656 119.606926L754.5656 119.18505ZM755.3781 119.638176Q755.3781 120.106926 755.6281 120.4038Q755.89374 120.700676 756.33124 120.700676Q756.7531 120.700676 757.0031 120.419426Q757.2531 120.12255 757.2531 119.62255L757.2531 119.18505Q757.2531 118.7163 756.9875 118.43505Q756.7375 118.138176 756.3156 118.138176Q755.89374 118.138176 755.6281 118.43505Q755.3781 118.7163 755.3781 119.2163L755.3781 119.638176ZM752.425 120.638176L751.8 120.24755L755.97186 113.575676L756.58124 113.9663L752.425 120.638176Z" fill-rule="nonzero"/><path stroke="#757575" stroke-width="1.0" stroke-linecap="butt" d="M758.8 107.7788L615.3 107.7788L562.3758 125.32434" fill-rule="nonzero"/><path fill="#9e9e9e" d="M564.3758 125.32434C564.3758 124.219765 563.48035 123.32434 562.3758 123.32434C561.27124 123.32434 560.3758 124.219765 560.3758 125.32434C560.3758 126.42891 561.27124 127.32434 562.3758 127.32434C563.48035 127.32434 564.3758 126.42891 564.3758 125.32434" fill-rule="nonzero"/><path fill="#000000" d="M744.0656 133.57568Q743.90936 134.91943 743.0656 135.66943Q742.22186 136.40381 740.83124 136.40381Q739.3156 136.40381 738.40936 135.32568Q737.5031 134.23193 737.5031 132.40381L737.5031 131.59131Q737.5031 130.40381 737.925 129.49756Q738.34686 128.59131 739.1281 128.10693Q739.90936 127.62256 740.925 127.62256Q742.28436 127.62256 743.09686 128.38818Q743.925 129.15381 744.0656 130.48193L742.9406 130.48193Q742.78436 129.46631 742.3 129.01318Q741.8156 128.56006 740.925 128.56006Q739.84686 128.56006 739.2375 129.35693Q738.6281 130.15381 738.6281 131.62256L738.6281 132.45068Q738.6281 133.84131 739.20624 134.66943Q739.78436 135.48193 740.83124 135.48193Q741.76874 135.48193 742.26874 135.06006Q742.76874 134.62256 742.9406 133.57568L744.0656 133.57568ZM748.3 132.48193Q746.8625 132.06006 746.1906 131.45068Q745.53436 130.84131 745.53436 129.95068Q745.53436 128.95068 746.33124 128.29443Q747.14374 127.62256 748.4406 127.62256Q749.3156 127.62256 750.0031 127.96631Q750.6906 128.31006 751.0656 128.90381Q751.45624 129.49756 751.45624 130.21631L750.3156 130.21631Q750.3156 129.43506 749.8156 128.99756Q749.33124 128.56006 748.4406 128.56006Q747.6125 128.56006 747.14374 128.93506Q746.675 129.29443 746.675 129.93506Q746.675 130.46631 747.1125 130.82568Q747.5656 131.18506 748.6281 131.48193Q749.6906 131.77881 750.28436 132.13818Q750.89374 132.49756 751.175 132.98193Q751.47186 133.46631 751.47186 134.10693Q751.47186 135.15381 750.65936 135.77881Q749.84686 136.40381 748.5031 136.40381Q747.6125 136.40381 746.84686 136.06006Q746.09686 135.71631 745.675 135.13818Q745.26874 134.54443 745.26874 133.81006L746.39374 133.81006Q746.39374 134.57568 746.97186 135.02881Q747.55 135.48193 748.5031 135.48193Q749.39374 135.48193 749.8625 135.12256Q750.33124 134.74756 750.33124 134.12256Q750.33124 133.49756 749.89374 133.15381Q749.45624 132.81006 748.3 132.48193ZM755.3 132.48193Q753.8625 132.06006 753.1906 131.45068Q752.53436 130.84131 752.53436 129.95068Q752.53436 128.95068 753.33124 128.29443Q754.14374 127.62256 755.4406 127.62256Q756.3156 127.62256 757.0031 127.96631Q757.6906 128.31006 758.0656 128.90381Q758.45624 129.49756 758.45624 130.21631L757.3156 130.21631Q757.3156 129.43506 756.8156 128.99756Q756.33124 128.56006 755.4406 128.56006Q754.6125 128.56006 754.14374 128.93506Q753.675 129.29443 753.675 129.93506Q753.675 130.46631 754.1125 130.82568Q754.5656 131.18506 755.6281 131.48193Q756.6906 131.77881 757.28436 132.13818Q757.89374 132.49756 758.175 132.98193Q758.47186 133.46631 758.47186 134.10693Q758.47186 135.15381 757.65936 135.77881Q756.84686 136.40381 755.5031 136.40381Q754.6125 136.40381 753.84686 136.06006Q753.09686 135.71631 752.675 135.13818Q752.26874 134.54443 752.26874 133.81006L753.39374 133.81006Q753.39374 134.57568 753.97186 135.02881Q754.55 135.48193 755.5031 135.48193Q756.39374 135.48193 756.8625 135.12256Q757.33124 134.74756 757.33124 134.12256Q757.33124 133.49756 756.89374 133.15381Q756.45624 132.81006 755.3 132.48193Z" fill-rule="nonzero"/><path fill="#9e9e9e" d="M738.08124 151.41943L739.26874 151.41943L739.26874 152.29443L738.08124 152.29443L738.08124 154.27881L737.0031 154.27881L737.0031 152.29443L733.1125 152.29443L733.1125 151.65381L736.925 145.74756L738.08124 145.74756L738.08124 151.41943ZM734.34686 151.41943L737.0031 151.41943L737.0031 147.23193L736.8625 147.46631L734.34686 151.41943ZM740.64374 153.71631Q740.64374 153.43506 740.8 153.24756Q740.97186 153.06006 741.3 153.06006Q741.64374 153.06006 741.8156 153.24756Q741.9875 153.43506 741.9875 153.71631Q741.9875 153.98193 741.8156 154.16943Q741.64374 154.34131 741.3 154.34131Q740.97186 154.34131 740.8 154.16943Q740.64374 153.98193 740.64374 153.71631ZM748.8625 150.63818Q748.8625 152.54443 748.20624 153.48193Q747.5656 154.40381 746.175 154.40381Q744.8156 154.40381 744.15936 153.49756Q743.5031 152.59131 743.47186 150.77881L743.47186 149.34131Q743.47186 147.45068 744.1125 146.54443Q744.76874 145.62256 746.15936 145.62256Q747.53436 145.62256 748.1906 146.51318Q748.84686 147.38818 748.8625 149.23193L748.8625 150.63818ZM747.76874 149.15381Q747.76874 147.77881 747.3781 147.15381Q747.0031 146.51318 746.15936 146.51318Q745.33124 146.51318 744.9406 147.15381Q744.5656 147.77881 744.5656 149.07568L744.5656 150.81006Q744.5656 152.18506 744.95624 152.85693Q745.3625 153.51318 746.175 153.51318Q746.97186 153.51318 747.3625 152.88818Q747.7531 152.26318 747.76874 150.93506L747.76874 149.15381ZM750.40936 147.38818Q750.40936 146.62256 750.89374 146.12256Q751.39374 145.62256 752.15936 145.62256Q752.9406 145.62256 753.425 146.12256Q753.90936 146.62256 753.90936 147.41943L753.90936 147.84131Q753.90936 148.60693 753.40936 149.10693Q752.925 149.59131 752.175 149.59131Q751.40936 149.59131 750.90936 149.10693Q750.40936 148.60693 750.40936 147.79443L750.40936 147.38818ZM751.22186 147.84131Q751.22186 148.29443 751.47186 148.59131Q751.7375 148.88818 752.175 148.88818Q752.59686 148.88818 752.84686 148.60693Q753.09686 148.31006 753.09686 147.81006L753.09686 147.38818Q753.09686 146.93506 752.84686 146.63818Q752.59686 146.32568 752.15936 146.32568Q751.72186 146.32568 751.47186 146.63818Q751.22186 146.93506 751.22186 147.40381L751.22186 147.84131ZM754.5656 152.18506Q754.5656 151.41943 755.05 150.93506Q755.55 150.43506 756.3156 150.43506Q757.08124 150.43506 757.5656 150.93506Q758.0656 151.41943 758.0656 152.23193L758.0656 152.63818Q758.0656 153.40381 757.58124 153.90381Q757.09686 154.40381 756.33124 154.40381Q755.5656 154.40381 755.0656 153.91943Q754.5656 153.41943 754.5656 152.60693L754.5656 152.18506ZM755.3781 152.63818Q755.3781 153.10693 755.6281 153.40381Q755.89374 153.70068 756.33124 153.70068Q756.7531 153.70068 757.0031 153.41943Q757.2531 153.12256 757.2531 152.62256L757.2531 152.18506Q757.2531 151.71631 756.9875 151.43506Q756.7375 151.13818 756.3156 151.13818Q755.89374 151.13818 755.6281 151.43506Q755.3781 151.71631 755.3781 152.21631L755.3781 152.63818ZM752.425 153.63818L751.8 153.24756L755.97186 146.57568L756.58124 146.96631L752.425 153.63818Z" fill-rule="nonzero"/><path stroke="#757575" stroke-width="1.0" stroke-linecap="butt" d="M758.8 140.77881L615.3 140.77881L576.03217 148.40712" fill-rule="nonzero"/><path fill="#9e9e9e" d="M578.03217 148.40712C578.03217 147.30255 577.1367 146.40712 576.03217 146.40712C574.9276 146.40712 574.03217 147.30255 574.03217 148.40712C574.03217 149.51169 574.9276 150.40712 576.03217 150.40712C577.1367 150.40712 578.03217 149.51169 578.03217 148.40712" fill-rule="nonzero"/><path fill="#000000" d="M706.78436 169.27881L706.78436 160.74756L709.20624 160.74756Q710.3156 160.74756 711.15936 161.24756Q712.01874 161.73193 712.4875 162.63818Q712.95624 163.54443 712.95624 164.73193L712.95624 165.26318Q712.95624 166.48193 712.4875 167.38818Q712.03436 168.29443 711.15936 168.77881Q710.3 169.26318 709.15936 169.27881L706.78436 169.27881ZM707.90936 161.66943L707.90936 168.35693L709.09686 168.35693Q710.39374 168.35693 711.1125 167.56006Q711.84686 166.74756 711.84686 165.24756L711.84686 164.74756Q711.84686 163.29443 711.15936 162.49756Q710.4875 161.68506 709.22186 161.66943L707.90936 161.66943ZM714.33124 166.04443Q714.33124 165.12256 714.6906 164.37256Q715.0656 163.62256 715.72186 163.23193Q716.3781 162.82568 717.20624 162.82568Q718.5031 162.82568 719.3 163.71631Q720.1125 164.60693 720.1125 166.10693L720.1125 166.18506Q720.1125 167.10693 719.7531 167.84131Q719.39374 168.57568 718.7375 168.99756Q718.08124 169.40381 717.22186 169.40381Q715.9406 169.40381 715.1281 168.51318Q714.33124 167.60693 714.33124 166.12256L714.33124 166.04443ZM715.425 166.18506Q715.425 167.23193 715.90936 167.87256Q716.40936 168.51318 717.22186 168.51318Q718.05 168.51318 718.53436 167.87256Q719.01874 167.21631 719.01874 166.04443Q719.01874 165.01318 718.51874 164.37256Q718.03436 163.71631 717.20624 163.71631Q716.40936 163.71631 715.90936 164.35693Q715.425 164.98193 715.425 166.18506ZM724.15936 168.51318Q724.7375 168.51318 725.175 168.16943Q725.6125 167.81006 725.65936 167.27881L726.6906 167.27881Q726.65936 167.82568 726.3 168.32568Q725.95624 168.81006 725.3781 169.10693Q724.8156 169.40381 724.15936 169.40381Q722.8625 169.40381 722.09686 168.54443Q721.34686 167.66943 721.34686 166.16943L721.34686 165.98193Q721.34686 165.06006 721.675 164.34131Q722.01874 163.62256 722.64374 163.23193Q723.28436 162.82568 724.15936 162.82568Q725.22186 162.82568 725.925 163.46631Q726.64374 164.09131 726.6906 165.12256L725.65936 165.12256Q725.6125 164.49756 725.1906 164.10693Q724.76874 163.71631 724.15936 163.71631Q723.33124 163.71631 722.8781 164.31006Q722.425 164.90381 722.425 166.02881L722.425 166.23193Q722.425 167.32568 722.8781 167.91943Q723.33124 168.51318 724.15936 168.51318ZM729.39374 166.34131L728.70624 167.04443L728.70624 169.27881L727.6281 169.27881L727.6281 160.27881L728.70624 160.27881L728.70624 165.71631L729.28436 165.02881L731.26874 162.93506L732.58124 162.93506L730.1125 165.59131L732.8781 169.27881L731.59686 169.27881L729.39374 166.34131ZM736.2531 169.40381Q734.95624 169.40381 734.14374 168.56006Q733.34686 167.70068 733.34686 166.27881L733.34686 166.09131Q733.34686 165.13818 733.70624 164.40381Q734.0656 163.65381 734.70624 163.24756Q735.3625 162.82568 736.1125 162.82568Q737.34686 162.82568 738.03436 163.63818Q738.72186 164.45068 738.72186 165.96631L738.72186 166.41943L734.425 166.41943Q734.45624 167.35693 734.97186 167.93506Q735.5031 168.51318 736.3156 168.51318Q736.8781 168.51318 737.26874 168.27881Q737.675 168.04443 737.9875 167.65381L738.64374 168.16943Q737.84686 169.40381 736.2531 169.40381ZM736.1125 163.71631Q735.45624 163.71631 735.0031 164.20068Q734.5656 164.66943 734.47186 165.52881L737.64374 165.52881L737.64374 165.45068Q737.59686 164.62256 737.1906 164.16943Q736.8 163.71631 736.1125 163.71631ZM742.6906 163.90381Q742.4406 163.87256 742.15936 163.87256Q741.08124 163.87256 740.70624 164.77881L740.70624 169.27881L739.6281 169.27881L739.6281 162.93506L740.675 162.93506L740.6906 163.66943Q741.22186 162.82568 742.20624 162.82568Q742.51874 162.82568 742.6906 162.90381L742.6906 163.90381ZM744.15936 169.27881L744.15936 163.77881L743.15936 163.77881L743.15936 162.93506L744.15936 162.93506L744.15936 162.29443Q744.15936 161.26318 744.6906 160.71631Q745.2375 160.15381 746.2375 160.15381Q746.6125 160.15381 746.9875 160.24756L746.925 161.13818Q746.64374 161.07568 746.34686 161.07568Q745.8156 161.07568 745.51874 161.38818Q745.2375 161.70068 745.2375 162.26318L745.2375 162.93506L746.59686 162.93506L746.59686 163.77881L745.2375 163.77881L745.2375 169.27881L744.15936 169.27881ZM748.8 169.27881L747.72186 169.27881L747.72186 162.93506L748.8 162.93506L748.8 169.27881ZM747.6281 161.26318Q747.6281 160.99756 747.78436 160.81006Q747.95624 160.62256 748.26874 160.62256Q748.58124 160.62256 748.7375 160.81006Q748.90936 160.99756 748.90936 161.26318Q748.90936 161.51318 748.7375 161.70068Q748.58124 161.87256 748.26874 161.87256Q747.95624 161.87256 747.78436 161.70068Q747.6281 161.51318 747.6281 161.26318ZM751.8 169.27881L750.72186 169.27881L750.72186 160.27881L751.8 160.27881L751.8 169.27881ZM756.2531 169.40381Q754.95624 169.40381 754.14374 168.56006Q753.34686 167.70068 753.34686 166.27881L753.34686 166.09131Q753.34686 165.13818 753.70624 164.40381Q754.0656 163.65381 754.70624 163.24756Q755.3625 162.82568 756.1125 162.82568Q757.34686 162.82568 758.03436 163.63818Q758.72186 164.45068 758.72186 165.96631L758.72186 166.41943L754.425 166.41943Q754.45624 167.35693 754.97186 167.93506Q755.5031 168.51318 756.3156 168.51318Q756.8781 168.51318 757.26874 168.27881Q757.675 168.04443 757.9875 167.65381L758.64374 168.16943Q757.84686 169.40381 756.2531 169.40381ZM756.1125 163.71631Q755.45624 163.71631 755.0031 164.20068Q754.5656 164.66943 754.47186 165.52881L757.64374 165.52881L757.64374 165.45068Q757.59686 164.62256 757.1906 164.16943Q756.8 163.71631 756.1125 163.71631Z" fill-rule="nonzero"/><path fill="#9e9e9e" d="M738.8625 183.63818Q738.8625 185.54443 738.20624 186.48193Q737.5656 187.40381 736.175 187.40381Q734.8156 187.40381 734.15936 186.49756Q733.5031 185.59131 733.47186 183.77881L733.47186 182.34131Q733.47186 180.45068 734.1125 179.54443Q734.76874 178.62256 736.15936 178.62256Q737.53436 178.62256 738.1906 179.51318Q738.84686 180.38818 738.8625 182.23193L738.8625 183.63818ZM737.76874 182.15381Q737.76874 180.77881 737.3781 180.15381Q737.0031 179.51318 736.15936 179.51318Q735.33124 179.51318 734.9406 180.15381Q734.5656 180.77881 734.5656 182.07568L734.5656 183.81006Q734.5656 185.18506 734.95624 185.85693Q735.3625 186.51318 736.175 186.51318Q736.97186 186.51318 737.3625 185.88818Q737.7531 185.26318 737.76874 183.93506L737.76874 182.15381ZM740.64374 186.71631Q740.64374 186.43506 740.8 186.24756Q740.97186 186.06006 741.3 186.06006Q741.64374 186.06006 741.8156 186.24756Q741.9875 186.43506 741.9875 186.71631Q741.9875 186.98193 741.8156 187.16943Q741.64374 187.34131 741.3 187.34131Q740.97186 187.34131 740.8 187.16943Q740.64374 186.98193 740.64374 186.71631ZM749.09686 187.27881L743.5031 187.27881L743.5031 186.49756L746.45624 183.21631Q747.1125 182.46631 747.3625 182.01318Q747.6125 181.54443 747.6125 181.04443Q747.6125 180.37256 747.20624 179.95068Q746.8156 179.51318 746.1281 179.51318Q745.33124 179.51318 744.8781 179.98193Q744.425 180.43506 744.425 181.26318L743.34686 181.26318Q743.34686 180.07568 744.09686 179.35693Q744.8625 178.62256 746.1281 178.62256Q747.33124 178.62256 748.01874 179.24756Q748.70624 179.87256 748.70624 180.91943Q748.70624 182.16943 747.09686 183.91943L744.8156 186.38818L749.09686 186.38818L749.09686 187.27881ZM750.40936 180.38818Q750.40936 179.62256 750.89374 179.12256Q751.39374 178.62256 752.15936 178.62256Q752.9406 178.62256 753.425 179.12256Q753.90936 179.62256 753.90936 180.41943L753.90936 180.84131Q753.90936 181.60693 753.40936 182.10693Q752.925 182.59131 752.175 182.59131Q751.40936 182.59131 750.90936 182.10693Q750.40936 181.60693 750.40936 180.79443L750.40936 180.38818ZM751.22186 180.84131Q751.22186 181.29443 751.47186 181.59131Q751.7375 181.88818 752.175 181.88818Q752.59686 181.88818 752.84686 181.60693Q753.09686 181.31006 753.09686 180.81006L753.09686 180.38818Q753.09686 179.93506 752.84686 179.63818Q752.59686 179.32568 752.15936 179.32568Q751.72186 179.32568 751.47186 179.63818Q751.22186 179.93506 751.22186 180.40381L751.22186 180.84131ZM754.5656 185.18506Q754.5656 184.41943 755.05 183.93506Q755.55 183.43506 756.3156 183.43506Q757.08124 183.43506 757.5656 183.93506Q758.0656 184.41943 758.0656 185.23193L758.0656 185.63818Q758.0656 186.40381 757.58124 186.90381Q757.09686 187.40381 756.33124 187.40381Q755.5656 187.40381 755.0656 186.91943Q754.5656 186.41943 754.5656 185.60693L754.5656 185.18506ZM755.3781 185.63818Q755.3781 186.10693 755.6281 186.40381Q755.89374 186.70068 756.33124 186.70068Q756.7531 186.70068 757.0031 186.41943Q757.2531 186.12256 757.2531 185.62256L757.2531 185.18506Q757.2531 184.71631 756.9875 184.43506Q756.7375 184.13818 756.3156 184.13818Q755.89374 184.13818 755.6281 184.43506Q755.3781 184.71631 755.3781 185.21631L755.3781 185.63818ZM752.425 186.63818L751.8 186.24756L755.97186 179.57568L756.58124 179.96631L752.425 186.63818Z" fill-rule="nonzero"/><path stroke="#757575" stroke-width="1.0" stroke-linecap="butt" d="M758.8 173.77881L615.3 173.77881L586.77905 173.6053" fill-rule="nonzero"/><path fill="#9e9e9e" d="M588.77905 173.6053C588.77905 172.50073 587.8836 171.6053 586.77905 171.6053C585.6745 171.6053 584.77905 172.50073 584.77905 173.6053C584.77905 174.70987 585.6745 175.6053 586.77905 175.6053C587.8836 175.6053 588.77905 174.70987 588.77905 173.6053" fill-rule="nonzero"/><path fill="#000000" d="M738.6125 198.34131L734.90936 198.34131L734.90936 201.35693L739.20624 201.35693L739.20624 202.27881L733.78436 202.27881L733.78436 193.74756L739.15936 193.74756L739.15936 194.66943L734.90936 194.66943L734.90936 197.41943L738.6125 197.41943L738.6125 198.34131ZM741.8 202.27881L740.72186 202.27881L740.72186 193.27881L741.8 193.27881L741.8 202.27881ZM744.8 202.27881L743.72186 202.27881L743.72186 195.93506L744.8 195.93506L744.8 202.27881ZM743.6281 194.26318Q743.6281 193.99756 743.78436 193.81006Q743.95624 193.62256 744.26874 193.62256Q744.58124 193.62256 744.7375 193.81006Q744.90936 193.99756 744.90936 194.26318Q744.90936 194.51318 744.7375 194.70068Q744.58124 194.87256 744.26874 194.87256Q743.95624 194.87256 743.78436 194.70068Q743.6281 194.51318 743.6281 194.26318ZM748.7531 198.24756L750.15936 195.93506L751.425 195.93506L749.34686 199.07568L751.4875 202.27881L750.2375 202.27881L748.76874 199.90381L747.3 202.27881L746.03436 202.27881L748.175 199.07568L746.1125 195.93506L747.3625 195.93506L748.7531 198.24756ZM753.8 202.27881L752.72186 202.27881L752.72186 195.93506L753.8 195.93506L753.8 202.27881ZM752.6281 194.26318Q752.6281 193.99756 752.78436 193.81006Q752.95624 193.62256 753.26874 193.62256Q753.58124 193.62256 753.7375 193.81006Q753.90936 193.99756 753.90936 194.26318Q753.90936 194.51318 753.7375 194.70068Q753.58124 194.87256 753.26874 194.87256Q752.95624 194.87256 752.78436 194.70068Q752.6281 194.51318 752.6281 194.26318ZM758.6906 196.90381Q758.4406 196.87256 758.15936 196.87256Q757.08124 196.87256 756.70624 197.77881L756.70624 202.27881L755.6281 202.27881L755.6281 195.93506L756.675 195.93506L756.6906 196.66943Q757.22186 195.82568 758.20624 195.82568Q758.51874 195.82568 758.6906 195.90381L758.6906 196.90381Z" fill-rule="nonzero"/><path fill="#9e9e9e" d="M738.08124 217.41943L739.26874 217.41943L739.26874 218.29443L738.08124 218.29443L738.08124 220.27881L737.0031 220.27881L737.0031 218.29443L733.1125 218.29443L733.1125 217.65381L736.925 211.74756L738.08124 211.74756L738.08124 217.41943ZM734.34686 217.41943L737.0031 217.41943L737.0031 213.23193L736.8625 213.46631L734.34686 217.41943ZM740.64374 219.71631Q740.64374 219.43506 740.8 219.24756Q740.97186 219.06006 741.3 219.06006Q741.64374 219.06006 741.8156 219.24756Q741.9875 219.43506 741.9875 219.71631Q741.9875 219.98193 741.8156 220.16943Q741.64374 220.34131 741.3 220.34131Q740.97186 220.34131 740.8 220.16943Q740.64374 219.98193 740.64374 219.71631ZM747.0656 220.27881L745.9875 220.27881L745.9875 213.06006L743.8 213.85693L743.8 212.87256L746.90936 211.70068L747.0656 211.70068L747.0656 220.27881ZM750.40936 213.38818Q750.40936 212.62256 750.89374 212.12256Q751.39374 211.62256 752.15936 211.62256Q752.9406 211.62256 753.425 212.12256Q753.90936 212.62256 753.90936 213.41943L753.90936 213.84131Q753.90936 214.60693 753.40936 215.10693Q752.925 215.59131 752.175 215.59131Q751.40936 215.59131 750.90936 215.10693Q750.40936 214.60693 750.40936 213.79443L750.40936 213.38818ZM751.22186 213.84131Q751.22186 214.29443 751.47186 214.59131Q751.7375 214.88818 752.175 214.88818Q752.59686 214.88818 752.84686 214.60693Q753.09686 214.31006 753.09686 213.81006L753.09686 213.38818Q753.09686 212.93506 752.84686 212.63818Q752.59686 212.32568 752.15936 212.32568Q751.72186 212.32568 751.47186 212.63818Q751.22186 212.93506 751.22186 213.40381L751.22186 213.84131ZM754.5656 218.18506Q754.5656 217.41943 755.05 216.93506Q755.55 216.43506 756.3156 216.43506Q757.08124 216.43506 757.5656 216.93506Q758.0656 217.41943 758.0656 218.23193L758.0656 218.63818Q758.0656 219.40381 757.58124 219.90381Q757.09686 220.40381 756.33124 220.40381Q755.5656 220.40381 755.0656 219.91943Q754.5656 219.41943 754.5656 218.60693L754.5656 218.18506ZM755.3781 218.63818Q755.3781 219.10693 755.6281 219.40381Q755.89374 219.70068 756.33124 219.70068Q756.7531 219.70068 757.0031 219.41943Q757.2531 219.12256 757.2531 218.62256L757.2531 218.18506Q757.2531 217.71631 756.9875 217.43506Q756.7375 217.13818 756.3156 217.13818Q755.89374 217.13818 755.6281 217.43506Q755.3781 217.71631 755.3781 218.21631L755.3781 218.63818ZM752.425 219.63818L751.8 219.24756L755.97186 212.57568L756.58124 212.96631L752.425 219.63818Z" fill-rule="nonzero"/><path stroke="#757575" stroke-width="1.0" stroke-linecap="butt" d="M758.8 206.77881L615.3 206.77881L594.2289 200.6146" fill-rule="nonzero"/><path fill="#9e9e9e" d="M596.2289 200.6146C596.2289 199.51003 595.33344 198.6146 594.2289 198.6146C593.1243 198.6146 592.2289 199.51003 592.2289 200.6146C592.2289 201.71916 593.1243 202.6146 594.2289 202.6146C595.33344 202.6146 596.2289 201.71916 596.2289 200.6146" fill-rule="nonzero"/><path fill="#000000" d="M729.6125 238.67857L725.90936 238.67857L725.90936 241.6942L730.20624 241.6942L730.20624 242.61607L724.78436 242.61607L724.78436 234.08482L730.15936 234.08482L730.15936 235.0067L725.90936 235.0067L725.90936 237.7567L729.6125 237.7567L729.6125 238.67857ZM734.6906 237.24107Q734.4406 237.20982 734.15936 237.20982Q733.08124 237.20982 732.70624 238.11607L732.70624 242.61607L731.6281 242.61607L731.6281 236.27232L732.675 236.27232L732.6906 237.0067Q733.22186 236.16295 734.20624 236.16295Q734.51874 236.16295 734.6906 236.24107L734.6906 237.24107ZM736.8 242.61607L735.72186 242.61607L735.72186 233.61607L736.8 233.61607L736.8 242.61607ZM742.53436 242.61607Q742.4406 242.42857 742.3781 241.9442Q741.6281 242.74107 740.58124 242.74107Q739.64374 242.74107 739.03436 242.20982Q738.4406 241.67857 738.4406 240.85045Q738.4406 239.86607 739.1906 239.3192Q739.9406 238.77232 741.3156 238.77232L742.3625 238.77232L742.3625 238.27232Q742.3625 237.70982 742.01874 237.3817Q741.6906 237.03795 741.01874 237.03795Q740.4406 237.03795 740.05 237.33482Q739.65936 237.61607 739.65936 238.03795L738.5656 238.03795Q738.5656 237.55357 738.89374 237.11607Q739.2375 236.67857 739.8156 236.42857Q740.39374 236.16295 741.08124 236.16295Q742.1906 236.16295 742.8 236.70982Q743.425 237.2567 743.45624 238.20982L743.45624 241.1317Q743.45624 242.0067 743.675 242.52232L743.675 242.61607L742.53436 242.61607ZM740.7375 241.78795Q741.2531 241.78795 741.70624 241.52232Q742.15936 241.2567 742.3625 240.83482L742.3625 239.53795L741.51874 239.53795Q739.51874 239.53795 739.51874 240.70982Q739.51874 241.20982 739.8625 241.5067Q740.20624 241.78795 740.7375 241.78795ZM746.64374 236.27232L746.675 237.0692Q747.40936 236.16295 748.58124 236.16295Q750.59686 236.16295 750.6125 238.42857L750.6125 242.61607L749.51874 242.61607L749.51874 238.41295Q749.51874 237.74107 749.20624 237.41295Q748.90936 237.08482 748.2531 237.08482Q747.72186 237.08482 747.3156 237.36607Q746.925 237.64732 746.70624 238.10045L746.70624 242.61607L745.6281 242.61607L745.6281 236.27232L746.64374 236.27232ZM752.3625 239.39732Q752.3625 237.91295 753.05 237.03795Q753.7375 236.16295 754.8625 236.16295Q756.01874 236.16295 756.675 236.97545L756.72186 236.27232L757.72186 236.27232L757.72186 242.45982Q757.72186 243.6942 756.9875 244.39732Q756.2531 245.11607 755.03436 245.11607Q754.34686 245.11607 753.6906 244.8192Q753.03436 244.52232 752.6906 244.02232L753.2531 243.36607Q753.9406 244.22545 754.95624 244.22545Q755.7375 244.22545 756.175 243.77232Q756.6281 243.33482 756.6281 242.52232L756.6281 241.97545Q755.97186 242.74107 754.84686 242.74107Q753.7375 242.74107 753.05 241.85045Q752.3625 240.9442 752.3625 239.39732ZM753.45624 239.52232Q753.45624 240.58482 753.89374 241.20982Q754.33124 241.8192 755.1281 241.8192Q756.14374 241.8192 756.6281 240.8817L756.6281 237.99107Q756.1281 237.08482 755.1281 237.08482Q754.34686 237.08482 753.89374 237.6942Q753.45624 238.30357 753.45624 239.52232Z" fill-rule="nonzero"/><path fill="#9e9e9e" d="M735.08124 255.81921L735.89374 255.81921Q736.675 255.80359 737.1125 255.41296Q737.55 255.02234 737.55 254.35046Q737.55 252.85046 736.05 252.85046Q735.34686 252.85046 734.925 253.25671Q734.51874 253.66296 734.51874 254.31921L733.425 254.31921Q733.425 253.30359 734.15936 252.63171Q734.90936 251.95984 736.05 251.95984Q737.2531 251.95984 737.9406 252.60046Q738.6281 253.24109 738.6281 254.38171Q738.6281 254.94421 738.26874 255.45984Q737.90936 255.97546 737.28436 256.2411Q737.9875 256.45984 738.3625 256.97546Q738.7531 257.4911 738.7531 258.2411Q738.7531 259.3817 738.0031 260.0692Q737.2531 260.7411 736.05 260.7411Q734.8625 260.7411 734.09686 260.08484Q733.34686 259.4286 733.34686 258.3661L734.4406 258.3661Q734.4406 259.03796 734.8781 259.4442Q735.3156 259.85046 736.0656 259.85046Q736.84686 259.85046 737.2531 259.4442Q737.675 259.02234 737.675 258.2567Q737.675 257.52234 737.22186 257.1317Q736.76874 256.72546 735.89374 256.70984L735.08124 256.70984L735.08124 255.81921ZM740.64374 260.0536Q740.64374 259.77234 740.8 259.58484Q740.97186 259.39734 741.3 259.39734Q741.64374 259.39734 741.8156 259.58484Q741.9875 259.77234 741.9875 260.0536Q741.9875 260.3192 741.8156 260.5067Q741.64374 260.6786 741.3 260.6786Q740.97186 260.6786 740.8 260.5067Q740.64374 260.3192 740.64374 260.0536ZM747.0656 260.6161L745.9875 260.6161L745.9875 253.39734L743.8 254.19421L743.8 253.20984L746.90936 252.03796L747.0656 252.03796L747.0656 260.6161ZM750.40936 253.72546Q750.40936 252.95984 750.89374 252.45984Q751.39374 251.95984 752.15936 251.95984Q752.9406 251.95984 753.425 252.45984Q753.90936 252.95984 753.90936 253.75671L753.90936 254.17859Q753.90936 254.94421 753.40936 255.44421Q752.925 255.92859 752.175 255.92859Q751.40936 255.92859 750.90936 255.44421Q750.40936 254.94421 750.40936 254.13171L750.40936 253.72546ZM751.22186 254.17859Q751.22186 254.63171 751.47186 254.92859Q751.7375 255.22546 752.175 255.22546Q752.59686 255.22546 752.84686 254.94421Q753.09686 254.64734 753.09686 254.14734L753.09686 253.72546Q753.09686 253.27234 752.84686 252.97546Q752.59686 252.66296 752.15936 252.66296Q751.72186 252.66296 751.47186 252.97546Q751.22186 253.27234 751.22186 253.74109L751.22186 254.17859ZM754.5656 258.52234Q754.5656 257.7567 755.05 257.27234Q755.55 256.77234 756.3156 256.77234Q757.08124 256.77234 757.5656 257.27234Q758.0656 257.7567 758.0656 258.5692L758.0656 258.97546Q758.0656 259.7411 757.58124 260.2411Q757.09686 260.7411 756.33124 260.7411Q755.5656 260.7411 755.0656 260.2567Q754.5656 259.7567 754.5656 258.9442L754.5656 258.52234ZM755.3781 258.97546Q755.3781 259.4442 755.6281 259.7411Q755.89374 260.03796 756.33124 260.03796Q756.7531 260.03796 757.0031 259.7567Q757.2531 259.45984 757.2531 258.95984L757.2531 258.52234Q757.2531 258.0536 756.9875 257.77234Q756.7375 257.47546 756.3156 257.47546Q755.89374 257.47546 755.6281 257.77234Q755.3781 258.0536 755.3781 258.5536L755.3781 258.97546ZM752.425 259.97546L751.8 259.58484L755.97186 252.91296L756.58124 253.30359L752.425 259.97546Z" fill-rule="nonzero"/><path stroke="#757575" stroke-width="1.0" stroke-linecap="butt" d="M758.8 247.11607L615.3 247.11607L598.34674 247.11607" fill-rule="nonzero"/><path fill="#9e9e9e" d="M600.34674 247.11607C600.34674 246.0115 599.4513 245.11607 598.34674 245.11607C597.2422 245.11607 596.34674 246.0115 596.34674 247.11607C596.34674 248.22064 597.2422 249.11607 598.34674 249.11607C599.4513 249.11607 600.34674 248.22064 600.34674 247.11607" fill-rule="nonzero"/><path fill="#000000" d="M751.09686 316.5589Q750.65936 317.1839 749.8781 317.4964Q749.09686 317.8089 748.0656 317.8089Q747.03436 317.8089 746.22186 317.32452Q745.40936 316.82452 744.97186 315.91827Q744.53436 315.01202 744.51874 313.82452L744.51874 313.09015Q744.51874 311.15265 745.40936 310.09015Q746.3156 309.02765 747.9406 309.02765Q749.28436 309.02765 750.09686 309.71515Q750.90936 310.40265 751.09686 311.65265L749.97186 311.65265Q749.64374 309.96515 747.95624 309.96515Q746.8156 309.96515 746.2375 310.76202Q745.65936 311.54327 745.64374 313.0589L745.64374 313.7464Q745.64374 315.1839 746.3 316.04327Q746.95624 316.88702 748.08124 316.88702Q748.70624 316.88702 749.175 316.7464Q749.65936 316.60577 749.97186 316.26202L749.97186 314.35577L748.0031 314.35577L748.0031 313.4339L751.09686 313.4339L751.09686 316.5589ZM752.33124 314.44952Q752.33124 313.52765 752.6906 312.77765Q753.0656 312.02765 753.72186 311.63702Q754.3781 311.23077 755.20624 311.23077Q756.5031 311.23077 757.3 312.1214Q758.1125 313.01202 758.1125 314.51202L758.1125 314.59015Q758.1125 315.51202 757.7531 316.2464Q757.39374 316.98077 756.7375 317.40265Q756.08124 317.8089 755.22186 317.8089Q753.9406 317.8089 753.1281 316.91827Q752.33124 316.01202 752.33124 314.52765L752.33124 314.44952ZM753.425 314.59015Q753.425 315.63702 753.90936 316.27765Q754.40936 316.91827 755.22186 316.91827Q756.05 316.91827 756.53436 316.27765Q757.01874 315.6214 757.01874 314.44952Q757.01874 313.41827 756.51874 312.77765Q756.03436 312.1214 755.20624 312.1214Q754.40936 312.1214 753.90936 312.76202Q753.425 313.38702 753.425 314.59015Z" fill-rule="nonzero"/><path fill="#9e9e9e" d="M738.6906 329.3714Q738.6906 330.01202 738.34686 330.51202Q738.0031 331.01202 737.4406 331.29327Q738.09686 331.57452 738.4875 332.13702Q738.8781 332.6839 738.8781 333.38702Q738.8781 334.48077 738.1281 335.15265Q737.39374 335.8089 736.175 335.8089Q734.9406 335.8089 734.1906 335.15265Q733.45624 334.48077 733.45624 333.38702Q733.45624 332.6839 733.83124 332.13702Q734.20624 331.57452 734.8781 331.29327Q734.3156 331.01202 733.9875 330.51202Q733.65936 330.01202 733.65936 329.3714Q733.65936 328.29327 734.34686 327.66827Q735.03436 327.02765 736.175 327.02765Q737.3 327.02765 737.9875 327.66827Q738.6906 328.29327 738.6906 329.3714ZM737.8 333.35577Q737.8 332.63702 737.34686 332.19952Q736.89374 331.7464 736.15936 331.7464Q735.425 331.7464 734.97186 332.19952Q734.53436 332.63702 734.53436 333.3714Q734.53436 334.09015 734.97186 334.51202Q735.40936 334.91827 736.175 334.91827Q736.925 334.91827 737.3625 334.4964Q737.8 334.07452 737.8 333.35577ZM736.175 327.91827Q735.53436 327.91827 735.1281 328.32452Q734.7375 328.71515 734.7375 329.40265Q734.7375 330.04327 735.1281 330.44952Q735.51874 330.85577 736.15936 330.85577Q736.8156 330.85577 737.20624 330.44952Q737.59686 330.04327 737.59686 329.40265Q737.59686 328.7464 737.1906 328.34015Q736.78436 327.91827 736.175 327.91827ZM740.64374 335.1214Q740.64374 334.84015 740.8 334.65265Q740.97186 334.46515 741.3 334.46515Q741.64374 334.46515 741.8156 334.65265Q741.9875 334.84015 741.9875 335.1214Q741.9875 335.38702 741.8156 335.57452Q741.64374 335.7464 741.3 335.7464Q740.97186 335.7464 740.8 335.57452Q740.64374 335.38702 740.64374 335.1214ZM748.6906 329.3714Q748.6906 330.01202 748.34686 330.51202Q748.0031 331.01202 747.4406 331.29327Q748.09686 331.57452 748.4875 332.13702Q748.8781 332.6839 748.8781 333.38702Q748.8781 334.48077 748.1281 335.15265Q747.39374 335.8089 746.175 335.8089Q744.9406 335.8089 744.1906 335.15265Q743.45624 334.48077 743.45624 333.38702Q743.45624 332.6839 743.83124 332.13702Q744.20624 331.57452 744.8781 331.29327Q744.3156 331.01202 743.9875 330.51202Q743.65936 330.01202 743.65936 329.3714Q743.65936 328.29327 744.34686 327.66827Q745.03436 327.02765 746.175 327.02765Q747.3 327.02765 747.9875 327.66827Q748.6906 328.29327 748.6906 329.3714ZM747.8 333.35577Q747.8 332.63702 747.34686 332.19952Q746.89374 331.7464 746.15936 331.7464Q745.425 331.7464 744.97186 332.19952Q744.53436 332.63702 744.53436 333.3714Q744.53436 334.09015 744.97186 334.51202Q745.40936 334.91827 746.175 334.91827Q746.925 334.91827 747.3625 334.4964Q747.8 334.07452 747.8 333.35577ZM746.175 327.91827Q745.53436 327.91827 745.1281 328.32452Q744.7375 328.71515 744.7375 329.40265Q744.7375 330.04327 745.1281 330.44952Q745.51874 330.85577 746.15936 330.85577Q746.8156 330.85577 747.20624 330.44952Q747.59686 330.04327 747.59686 329.40265Q747.59686 328.7464 747.1906 328.34015Q746.78436 327.91827 746.175 327.91827ZM750.40936 328.79327Q750.40936 328.02765 750.89374 327.52765Q751.39374 327.02765 752.15936 327.02765Q752.9406 327.02765 753.425 327.52765Q753.90936 328.02765 753.90936 328.82452L753.90936 329.2464Q753.90936 330.01202 753.40936 330.51202Q752.925 330.9964 752.175 330.9964Q751.40936 330.9964 750.90936 330.51202Q750.40936 330.01202 750.40936 329.19952L750.40936 328.79327ZM751.22186 329.2464Q751.22186 329.69952 751.47186 329.9964Q751.7375 330.29327 752.175 330.29327Q752.59686 330.29327 752.84686 330.01202Q753.09686 329.71515 753.09686 329.21515L753.09686 328.79327Q753.09686 328.34015 752.84686 328.04327Q752.59686 327.73077 752.15936 327.73077Q751.72186 327.73077 751.47186 328.04327Q751.22186 328.34015 751.22186 328.8089L751.22186 329.2464ZM754.5656 333.59015Q754.5656 332.82452 755.05 332.34015Q755.55 331.84015 756.3156 331.84015Q757.08124 331.84015 757.5656 332.34015Q758.0656 332.82452 758.0656 333.63702L758.0656 334.04327Q758.0656 334.8089 757.58124 335.3089Q757.09686 335.8089 756.33124 335.8089Q755.5656 335.8089 755.0656 335.32452Q754.5656 334.82452 754.5656 334.01202L754.5656 333.59015ZM755.3781 334.04327Q755.3781 334.51202 755.6281 334.8089Q755.89374 335.10577 756.33124 335.10577Q756.7531 335.10577 757.0031 334.82452Q757.2531 334.52765 757.2531 334.02765L757.2531 333.59015Q757.2531 333.1214 756.9875 332.84015Q756.7375 332.54327 756.3156 332.54327Q755.89374 332.54327 755.6281 332.84015Q755.3781 333.1214 755.3781 333.6214L755.3781 334.04327ZM752.425 335.04327L751.8 334.65265L755.97186 327.98077L756.58124 328.3714L752.425 335.04327Z" fill-rule="nonzero"/><path stroke="#757575" stroke-width="1.0" stroke-linecap="butt" d="M758.8 322.1839L615.3 322.1839L582.24146 322.1839" fill-rule="nonzero"/><path fill="#9e9e9e" d="M584.24146 322.1839C584.24146 321.0793 583.346 320.1839 582.24146 320.1839C581.13684 320.1839 580.24146 321.0793 580.24146 322.1839C580.24146 323.28845 581.13684 324.1839 582.24146 324.1839C583.346 324.1839 584.24146 323.28845 584.24146 322.1839" fill-rule="nonzero"/><path fill="#000000" d="M734.34686 432.38983L733.22186 432.38983L733.22186 428.45233L728.90936 428.45233L728.90936 432.38983L727.78436 432.38983L727.78436 423.85858L728.90936 423.85858L728.90936 427.53046L733.22186 427.53046L733.22186 423.85858L734.34686 423.85858L734.34686 432.38983ZM742.6906 424.78046L739.9406 424.78046L739.9406 432.38983L738.83124 432.38983L738.83124 424.78046L736.08124 424.78046L736.08124 423.85858L742.6906 423.85858L742.6906 424.78046ZM745.2375 423.85858L748.03436 430.8117L750.8156 423.85858L752.28436 423.85858L752.28436 432.38983L751.15936 432.38983L751.15936 429.0617L751.26874 425.48358L748.45624 432.38983L747.59686 432.38983L744.8 425.4992L744.90936 429.0617L744.90936 432.38983L743.78436 432.38983L743.78436 423.85858L745.2375 423.85858ZM754.925 431.46796L758.97186 431.46796L758.97186 432.38983L753.78436 432.38983L753.78436 423.85858L754.925 423.85858L754.925 431.46796Z" fill-rule="nonzero"/><path fill="#9e9e9e" d="M730.0656 450.38983L728.9875 450.38983L728.9875 443.17108L726.8 443.96796L726.8 442.98358L729.90936 441.8117L730.0656 441.8117L730.0656 450.38983ZM739.01874 442.46796L735.4875 450.38983L734.34686 450.38983L737.8625 442.7492L733.2531 442.7492L733.2531 441.85858L739.01874 441.85858L739.01874 442.46796ZM740.64374 449.82733Q740.64374 449.54608 740.8 449.35858Q740.97186 449.17108 741.3 449.17108Q741.64374 449.17108 741.8156 449.35858Q741.9875 449.54608 741.9875 449.82733Q741.9875 450.09296 741.8156 450.28046Q741.64374 450.45233 741.3 450.45233Q740.97186 450.45233 740.8 450.28046Q740.64374 450.09296 740.64374 449.82733ZM747.76874 441.85858L747.76874 442.76483L747.5656 442.76483Q746.3 442.79608 745.55 443.53046Q744.8 444.2492 744.675 445.5617Q745.3625 444.79608 746.51874 444.79608Q747.6281 444.79608 748.3 445.57733Q748.97186 446.35858 748.97186 447.60858Q748.97186 448.92108 748.2531 449.71796Q747.53436 450.51483 746.3156 450.51483Q745.09686 450.51483 744.33124 449.57733Q743.58124 448.6242 743.58124 447.13983L743.58124 446.73358Q743.58124 444.3742 744.58124 443.1242Q745.58124 441.8742 747.5656 441.85858L747.76874 441.85858ZM746.34686 445.70233Q745.78436 445.70233 745.3156 446.03046Q744.84686 446.35858 744.65936 446.8742L744.65936 447.26483Q744.65936 448.32733 745.1281 448.96796Q745.6125 449.60858 746.3156 449.60858Q747.05 449.60858 747.47186 449.07733Q747.89374 448.53046 747.89374 447.65546Q747.89374 446.78046 747.47186 446.2492Q747.05 445.70233 746.34686 445.70233ZM750.40936 443.4992Q750.40936 442.73358 750.89374 442.23358Q751.39374 441.73358 752.15936 441.73358Q752.9406 441.73358 753.425 442.23358Q753.90936 442.73358 753.90936 443.53046L753.90936 443.95233Q753.90936 444.71796 753.40936 445.21796Q752.925 445.70233 752.175 445.70233Q751.40936 445.70233 750.90936 445.21796Q750.40936 444.71796 750.40936 443.90546L750.40936 443.4992ZM751.22186 443.95233Q751.22186 444.40546 751.47186 444.70233Q751.7375 444.9992 752.175 444.9992Q752.59686 444.9992 752.84686 444.71796Q753.09686 444.42108 753.09686 443.92108L753.09686 443.4992Q753.09686 443.04608 752.84686 442.7492Q752.59686 442.4367 752.15936 442.4367Q751.72186 442.4367 751.47186 442.7492Q751.22186 443.04608 751.22186 443.51483L751.22186 443.95233ZM754.5656 448.29608Q754.5656 447.53046 755.05 447.04608Q755.55 446.54608 756.3156 446.54608Q757.08124 446.54608 757.5656 447.04608Q758.0656 447.53046 758.0656 448.34296L758.0656 448.7492Q758.0656 449.51483 757.58124 450.01483Q757.09686 450.51483 756.33124 450.51483Q755.5656 450.51483 755.0656 450.03046Q754.5656 449.53046 754.5656 448.71796L754.5656 448.29608ZM755.3781 448.7492Q755.3781 449.21796 755.6281 449.51483Q755.89374 449.8117 756.33124 449.8117Q756.7531 449.8117 757.0031 449.53046Q757.2531 449.23358 757.2531 448.73358L757.2531 448.29608Q757.2531 447.82733 756.9875 447.54608Q756.7375 447.2492 756.3156 447.2492Q755.89374 447.2492 755.6281 447.54608Q755.3781 447.82733 755.3781 448.32733L755.3781 448.7492ZM752.425 449.7492L751.8 449.35858L755.97186 442.6867L756.58124 443.07733L752.425 449.7492Z" fill-rule="nonzero"/><path stroke="#757575" stroke-width="1.0" stroke-linecap="butt" d="M758.8 436.88983L615.3 436.88983L460.9961 436.88983" fill-rule="nonzero"/><path fill="#9e9e9e" d="M462.9961 436.88983C462.9961 435.78525 462.10065 434.88983 460.9961 434.88983C459.8915 434.88983 458.9961 435.78525 458.9961 436.88983C458.9961 437.9944 459.8915 438.88983 460.9961 438.88983C462.10065 438.88983 462.9961 437.9944 462.9961 436.88983" fill-rule="nonzero"/></svg>